<svg width="25" height="24" viewBox="0 0 25 24" fill="none" xmlns="http://www.w3.org/2000/svg">
<path fill-rule="evenodd" clip-rule="evenodd" d="M8.25 9C8.25 10.1046 7.35457 11 6.25 11C5.14543 11 4.25 10.1046 4.25 9C4.25 7.89543 5.14543 7 6.25 7C7.35457 7 8.25 7.89543 8.25 9ZM4.89998 11.6667H7.60019C8.27525 11.6667 9.56798 12.4794 9.96266 13.3334C10.0001 13.4145 10.0335 13.4981 10.0631 13.5828C9.85308 13.6776 9.64211 13.7979 9.44506 13.9315C9.03275 14.2111 8.62726 14.5856 8.37579 15H2.8747C2.50196 15 2.20189 14.7007 2.25642 14.3366C2.30242 14.0294 2.38583 13.6608 2.53705 13.3334C2.93152 12.4793 4.22493 11.6667 4.89998 11.6667ZM8.73606 15.0001C8.65646 15.1093 8.58897 15.221 8.53705 15.3334C8.38583 15.6608 8.30242 16.0294 8.25642 16.3366C8.20189 16.7007 8.50196 17 8.8747 17H15.6252C15.9981 17 16.2983 16.7005 16.2435 16.3362C16.1974 16.029 16.1139 15.6605 15.9627 15.3334C15.9107 15.2209 15.8432 15.1092 15.7636 15H15.7637C15.4234 14.5332 14.862 14.1117 14.3495 13.8726C14.3743 13.7762 14.4031 13.6788 14.4368 13.5826C14.6469 13.6775 14.858 13.7978 15.0551 13.9315C15.4673 14.2111 15.8727 14.5857 16.1241 15H21.6252C21.9981 15 22.2983 14.7005 22.2435 14.3362C22.1974 14.029 22.1139 13.6605 21.9627 13.3334C21.568 12.4794 20.2752 11.6667 19.6002 11.6667H16.9C16.2249 11.6667 14.9315 12.4793 14.5371 13.3334C14.457 13.5066 14.396 13.6915 14.3494 13.8726C14.0708 13.7427 13.8066 13.6667 13.6002 13.6667H10.9C10.6935 13.6667 10.4292 13.7427 10.1505 13.8727C10.1505 13.8727 10.1505 13.8727 10.1505 13.8727C9.63787 14.1118 9.07642 14.5333 8.73621 15.0001H8.73606ZM20.25 9C20.25 10.1046 19.3546 11 18.25 11C17.1454 11 16.25 10.1046 16.25 9C16.25 7.89543 17.1454 7 18.25 7C19.3546 7 20.25 7.89543 20.25 9ZM12.25 13C13.3546 13 14.25 12.1046 14.25 11C14.25 9.89543 13.3546 9 12.25 9C11.1454 9 10.25 9.89543 10.25 11C10.25 12.1046 11.1454 13 12.25 13Z" fill="#B8B8B8"/>
</svg>
