<svg width="24" height="24" viewBox="0 0 24 24" fill="none" xmlns="http://www.w3.org/2000/svg">
<g id="icon=message">
<path id="Subtract" fill-rule="evenodd" clip-rule="evenodd" d="M12 22C17.5228 22 22 17.5228 22 12C22 6.47715 17.5228 2 12 2C6.47715 2 2 6.47715 2 12C2 17.5228 6.47715 22 12 22ZM6 11.5C6 9.01472 8.01472 7 10.5 7H13.5C15.9853 7 18 9.01472 18 11.5C18 12.6644 17.5577 13.7256 16.832 14.5246C16.7188 14.6492 16.6642 14.8183 16.6964 14.9836L16.9687 16.3796C16.9832 16.4337 16.9884 16.4872 16.9856 16.5387C16.9717 16.7863 16.7465 16.9812 16.5 17C16.4455 17.0041 16.3887 16.9992 16.3312 16.9838L13.7517 16.0313C13.6908 16.0088 13.626 15.9987 13.5611 15.9996C13.5407 15.9999 13.5204 16 13.5 16H10.5C8.01472 16 6 13.9853 6 11.5Z" fill="#B8B8B8"/>
</g>
</svg>
