<svg width="24" height="24" viewBox="0 0 24 24" fill="none" xmlns="http://www.w3.org/2000/svg">
<path fill-rule="evenodd" clip-rule="evenodd" d="M12 22C17.5228 22 22 17.5228 22 12C22 6.47715 17.5228 2 12 2C6.47715 2 2 6.47715 2 12C2 17.5228 6.47715 22 12 22ZM12.3902 7.03843C12.0022 6.96126 11.6001 7.00087 11.2346 7.15224C10.8692 7.30362 10.5568 7.55996 10.3371 7.88886C10.1173 8.21776 10 8.60444 10 9C10 9.55229 9.55228 10 9 10C8.44772 10 8 9.55229 8 9C8 8.20888 8.2346 7.43552 8.67412 6.77772C9.11365 6.11992 9.73836 5.60723 10.4693 5.30448C11.2002 5.00173 12.0044 4.92252 12.7804 5.07686C13.5563 5.2312 14.269 5.61216 14.8284 6.17157C15.3878 6.73098 15.7688 7.44372 15.9231 8.21964C16.0775 8.99557 15.9983 9.79983 15.6955 10.5307C15.3706 11.3151 14.8352 11.7972 14.3282 12.2444C13.9234 12.6014 13.4645 12.7643 13.2122 12.8539C13.18 12.8654 13.1511 12.8756 13.1262 12.8849C12.8847 12.975 12.8628 13.0082 12.8352 13.05L12.8342 13.0515C12.8244 13.0662 12.7856 13.1431 12.7686 13.3264C12.7524 13.5013 12.7619 13.7099 12.7899 13.9278C12.8175 14.1419 12.8595 14.3395 12.8953 14.4847C12.9129 14.5565 12.9286 14.6133 12.9392 14.6504C12.9445 14.6689 12.9485 14.6823 12.9509 14.6901L12.9527 14.6961C13.1205 15.2221 12.8302 15.7846 12.3043 15.9526C11.7782 16.1206 11.2155 15.8304 11.0474 15.3043L12 15C11.0474 15.3043 11.0473 15.3041 11.0473 15.3039L11.0471 15.3034L11.0468 15.3024L11.046 15.2998L11.0438 15.2928L11.0373 15.2716C11.032 15.2543 11.025 15.2308 11.0166 15.2016C10.9999 15.1433 10.9777 15.0621 10.9533 14.9631C10.905 14.7669 10.846 14.4922 10.8063 14.183C10.767 13.8777 10.7428 13.5122 10.7771 13.142C10.8106 12.7803 10.9064 12.341 11.1658 11.9485C11.557 11.3568 12.0857 11.1384 12.4273 11.011L12.5316 10.9723C12.8135 10.8677 12.9032 10.8344 13.0052 10.7444C13.5185 10.2918 13.7185 10.0773 13.8478 9.76537C13.9991 9.39992 14.0387 8.99778 13.9616 8.60982C13.8844 8.22186 13.6939 7.86549 13.4142 7.58579C13.1345 7.30608 12.7781 7.1156 12.3902 7.03843ZM13 18C13 18.5523 12.5523 19 12 19C11.4477 19 11 18.5523 11 18C11 17.4477 11.4477 17 12 17C12.5523 17 13 17.4477 13 18Z" fill="#B8B8B8"/>
</svg>
