<svg width="25" height="24" viewBox="0 0 25 24" fill="none" xmlns="http://www.w3.org/2000/svg">
<path fill-rule="evenodd" clip-rule="evenodd" d="M11.5 2C10.9477 2 10.5 2.44772 10.5 3V3.13129C10.5 3.79095 10.0407 4.35639 9.43158 4.60958C8.82233 4.86282 8.10985 4.78155 7.64331 4.31501L7.55018 4.22188C7.15966 3.83136 6.52649 3.83136 6.13597 4.22188L4.72176 5.63609C4.33123 6.02662 4.33123 6.65978 4.72176 7.05031L4.81499 7.14355C5.28149 7.61004 5.36277 8.32245 5.10955 8.93165C4.85638 9.54075 4.29099 10 3.63137 10H3.5C2.94772 10 2.5 10.4477 2.5 11V13C2.5 13.5523 2.94772 14 3.5 14H3.63129C4.29095 14 4.85639 14.4593 5.10958 15.0684C5.36282 15.6777 5.28155 16.3901 4.81501 16.8567L4.72194 16.9498C4.33142 17.3403 4.33142 17.9734 4.72194 18.364L6.13615 19.7782C6.52668 20.1687 7.15984 20.1687 7.55037 19.7782L7.64355 19.685C8.11004 19.2185 8.82245 19.1372 9.43165 19.3904C10.0407 19.6436 10.5 20.209 10.5 20.8686V21C10.5 21.5523 10.9477 22 11.5 22H13.5C14.0523 22 14.5 21.5523 14.5 21V20.8686C14.5 20.209 14.9593 19.6436 15.5683 19.3904C16.1775 19.1372 16.89 19.2185 17.3565 19.685L17.4497 19.7782C17.8402 20.1688 18.4734 20.1688 18.8639 19.7782L20.2781 18.364C20.6686 17.9735 20.6686 17.3403 20.2781 16.9498L20.185 16.8567C19.7184 16.3901 19.6372 15.6777 19.8904 15.0684C20.1436 14.4593 20.709 14 21.3687 14H21.5C22.0523 14 22.5 13.5523 22.5 13V11C22.5 10.4477 22.0523 10 21.5 10H21.3686C20.709 10 20.1436 9.54075 19.8904 8.93165C19.6372 8.32245 19.7185 7.61004 20.185 7.14354L20.2783 7.05026C20.6688 6.65974 20.6688 6.02657 20.2783 5.63605L18.8641 4.22183C18.4736 3.83131 17.8404 3.83131 17.4499 4.22183L17.3567 4.31501C16.8901 4.78155 16.1777 4.86282 15.5684 4.60958C14.9593 4.35639 14.5 3.79095 14.5 3.13129V3C14.5 2.44772 14.0523 2 13.5 2H11.5ZM12.5 17C15.2614 17 17.5 14.7614 17.5 12C17.5 9.23858 15.2614 7 12.5 7C9.73858 7 7.5 9.23858 7.5 12C7.5 14.7614 9.73858 17 12.5 17Z" fill="#288BE1"/>
</svg>
