<svg width="48" height="48" viewBox="0 0 48 48" fill="none" xmlns="http://www.w3.org/2000/svg">
<g id="Frame 7346">
<g id="Group 378">
<path id="Vector" fill-rule="evenodd" clip-rule="evenodd" d="M0.499263 3.31999C0.506616 3.91681 0.544606 4.10308 0.567891 4.69867L0.5299 5.82857C0.441665 6.56142 0.308087 7.30406 0.268871 8.03936C0.24191 8.50995 0.349753 8.97931 0.430636 9.43642L0.414704 11.2391L0.42941 14.4217C0.42941 14.4217 0.402449 15.7072 0.402449 15.9634C0.403675 16.2183 0.44044 16.255 0.702695 16.2881C1.37059 16.3739 1.51519 16.4634 2.23088 16.6864C3.09118 16.9474 4.03358 17.4622 4.57402 17.6166C5.16593 17.7869 5.32402 17.9989 5.90735 18.1521C6.49436 18.309 7.10343 18.5504 7.68799 18.6705C8.33015 18.8004 8.9723 18.8776 9.62794 18.9413C10.5569 19.032 11.5103 19.4474 12.5078 19.5712C13.1267 19.6521 13.1292 19.6362 13.7493 19.7207C14.2701 19.7918 14.7125 19.8788 15.2027 19.9291C15.6708 19.9781 17.84 19.9548 18.8203 20.0124C19.5078 20.0381 20.2051 20.1141 20.8779 20.1117C21.3571 20.108 21.8412 20.0749 22.3289 20.0418C22.8865 20.0001 24.438 20.0651 24.8314 20.0492C25.487 20.0234 26.15 19.9058 26.15 19.9058C26.6635 19.8788 28.8424 19.646 29.4662 19.5283C30.0495 19.4229 30.6659 19.2158 31.3669 19.1153C31.8939 19.0357 32.4735 18.9707 33.0703 18.82C33.6757 18.6668 34.3167 18.4732 34.9711 18.2648C35.5973 18.0626 36.2542 17.8751 36.9 17.6349C37.5299 17.4046 38.1316 17.0773 38.7591 16.8298C39.4282 16.5577 40.074 16.2354 40.7113 15.9585C41.3534 15.6827 41.8007 15.3849 42.3792 15.1215C43.0716 14.8065 44.2676 14.1546 44.7235 13.9438C45.4735 13.5957 46.7909 13.0283 47.1696 12.9095C47.2419 12.8997 47.3105 12.8947 47.3755 12.8911C47.487 12.8592 47.5618 12.869 47.5483 12.6852C47.536 12.5026 47.449 11.2857 47.449 11.2857C47.3914 10.559 47.3338 9.83225 47.2787 9.10553C47.2456 8.68764 47.215 8.27098 47.1917 7.85308C47.1733 7.53813 47.275 7.20848 47.3301 6.89965C47.3939 6.53936 47.4478 6.17049 47.427 5.80529C47.4037 5.3445 47.3522 5.3347 47.3522 4.87269C47.3547 4.53813 47.351 5.02465 47.362 4.69009C47.3816 4.11779 47.552 3.99401 47.6843 3.44132C47.7873 3.0124 47.7627 2.80529 47.7603 2.36289C47.7578 1.90578 47.7272 1.51117 47.6353 1.06632C47.6243 1.0124 47.4895 0.280779 47.4723 0.282005C47.4723 0.282005 45.4625 0.391073 45.4613 0.391073C44.7162 0.430289 44.6904 0.305289 43.9441 0.389848C43.5593 0.433965 43.161 0.520975 42.775 0.505044C42.2591 0.48421 41.7137 0.402103 41.2051 0.418034C37.5961 0.535681 34.2603 0.161906 30.6426 0.101857L28.9184 0.0859261L27.1966 0.164357L25.4699 0.0896026L23.7456 0.000141787C22.9772 -0.00598559 22.2125 0.188867 21.4441 0.122691C20.4735 0.0381321 19.5066 0.0516124 18.5348 0.0663183L16.7873 0.10921L15.0434 0.333475C13.2309 0.350632 11.4012 0.540583 9.59485 0.70725C7.94412 0.861661 7.00294 0.661906 5.3473 0.590828C3.99436 0.529553 1.98333 0.0859261 0.582596 0.331024C0.496812 0.34573 0.352204 0.447446 0.36691 0.545485C0.413479 0.843279 0.479655 1.44867 0.483332 1.50382C0.518871 2.1521 0.49191 2.59328 0.498038 3.24034C0.498038 3.2673 0.499263 3.29426 0.499263 3.31999Z" fill="white"/>
<path id="Vector_2" fill-rule="evenodd" clip-rule="evenodd" d="M47.5498 37.9544C47.5412 37.8036 47.5302 37.6529 47.513 37.5022C47.4591 37.0683 47.3966 36.637 47.339 36.2044L47.2826 34.4311L47.4052 32.648C47.1331 29.262 47.5645 25.8674 47.5645 22.4728C47.5645 22.4029 47.404 19.474 47.404 19.474C47.404 19.474 47.3696 18.0377 47.3721 17.811C47.3745 17.5843 47.3966 17.5181 47.3071 17.5953C47.2189 17.6725 46.2753 18.1566 45.8733 18.4066C45.7373 18.4911 45.5008 18.7081 45.3917 18.8392C45.2924 18.9581 45.1454 19.1174 45.0412 19.235C44.8586 19.4372 43.263 20.5916 42.6258 20.8367C41.9738 21.0855 41.491 21.2816 40.9297 21.4752C40.3292 21.6786 39.7704 22.05 39.2091 22.2399C38.567 22.4605 37.8586 22.7301 37.2471 22.9299C36.6209 23.137 36.0045 23.3294 35.3893 23.5156C34.7128 23.7142 33.828 23.9066 33.1417 24.0818C32.1491 24.3343 31.138 24.5083 30.1221 24.5953C30.0657 24.6014 29.6196 24.648 29.4248 24.6639C29.3341 24.675 29.3513 24.7338 29.3598 24.7656C29.6184 25.8649 29.8402 26.9813 30.1932 28.0585C30.2875 28.3465 30.3844 28.6345 30.4738 28.925C30.8451 30.1468 31.0902 31.2951 32.3022 31.9311C33.7765 32.7044 36.0375 32.8514 37.6576 32.9507C38.4554 32.9997 39.0388 33.1039 39.4738 33.2706C40.0437 33.4911 40.1282 33.8392 40.3378 34.2987C40.4738 34.5978 40.7986 34.9323 40.8856 35.3465C40.9726 35.7595 41.0522 35.9274 41.1748 36.463C41.2067 36.6112 41.3145 36.5843 41.3451 36.7264C41.4469 37.1664 41.4407 37.5916 41.4579 37.9654C41.4775 38.4691 41.4248 39.2865 40.6956 39.1456C40.3329 39.0757 38.4983 39.0107 37.9223 38.9948C37.3329 38.9789 36.7018 38.7951 36.0314 38.7338C35.4089 38.6811 33.1723 38.1198 32.551 37.9887C31.877 37.8441 31.2226 37.6701 30.6172 37.4728C29.9432 37.2571 28.1221 36.1333 27.7765 35.6566C27.4297 35.1811 26.5375 33.3147 26.2569 32.7166C25.9603 32.0867 25.8206 31.4127 25.5878 30.7154C25.301 29.8612 25.1625 28.963 24.9346 28.0916C24.8317 27.7019 24.8488 27.2804 24.8255 26.8784C24.8035 26.4348 24.7973 25.9911 24.8145 25.5463C24.8145 25.496 24.812 25.3956 24.7679 25.3992C23.8745 25.4691 23.0118 25.6259 22.1147 25.5831C22.051 25.5794 21.4346 25.5487 21.2079 25.5304C21.1589 25.5255 21.1294 25.572 21.1294 25.599C21.1233 25.8821 21.0081 26.2031 20.9395 26.4691C20.7361 27.2522 20.5032 28.0365 20.2287 28.7987C20.1025 29.1492 20.0645 29.1357 19.9407 29.4887C19.7655 29.996 19.5902 30.7179 19.2961 31.5438C19.0719 32.1664 18.8071 32.86 18.5314 33.5929C18.1062 34.6835 18.1895 34.713 17.7618 35.8C17.4836 36.485 17.0412 37.0794 16.7385 37.6946C16.3819 38.4176 16.078 39.1161 15.7177 39.7203C15.2937 40.425 14.8464 41.0193 14.4518 41.5328C13.8157 42.3514 13.2741 42.9458 12.8402 43.1468C12.2373 43.4225 11.5645 43.4237 10.9101 43.2963C10.0461 43.1333 9.25077 42.7117 8.41499 42.4581C8.22749 42.4005 8.03876 42.3441 7.85494 42.2816C7.72994 42.2399 7.5547 42.2166 7.4444 42.1468C6.97136 41.8502 7.10862 41.1664 7.46769 40.6088C7.75445 40.1652 8.19685 39.8441 8.47626 39.5708C9.36597 38.6946 9.94563 37.8735 10.725 36.8747C11.1552 36.3196 11.5559 35.7228 11.9603 35.072C12.3194 34.4985 13.6491 31.9728 13.964 31.2816C14.2422 30.6713 14.6491 30.0916 14.9248 29.4274C15.3145 28.4924 15.7005 27.5598 16.0118 26.5953C16.1478 26.1713 16.2777 25.7448 16.4236 25.3245C16.4444 25.2632 16.464 25.2669 16.4187 25.2215C16.3782 25.1786 16.1821 25.1664 16.089 25.1664C15.9297 25.1627 15.7704 25.148 15.6123 25.1394C15.2753 25.121 14.9383 24.9997 14.6025 24.9666C13.9334 24.8992 13.2557 24.8637 12.5988 24.773C11.9321 24.6774 10.9971 24.4225 10.3476 24.3024C9.69072 24.1823 8.91744 24.0683 8.27773 23.9237C7.63068 23.7767 7.08533 23.6505 6.45911 23.4752C5.77283 23.2865 5.84759 23.0781 5.1797 22.8576C4.3243 22.5781 2.99955 21.9654 2.56695 21.8122C1.97014 21.5978 1.99832 21.4421 1.42479 21.1357C1.23484 21.0365 1.03509 20.9115 0.81695 20.7718C0.75445 20.7313 0.636803 20.6174 0.636803 20.8429C0.636803 21.0647 0.666215 21.3931 0.66744 21.4029C0.690725 21.6566 0.81695 21.8894 0.823077 22.1505C0.835332 22.6112 0.737293 23.0708 0.737293 23.5316L0.789989 25.2828C0.789989 25.2828 0.656411 27.023 0.656411 27.0328C0.619646 27.5107 0.492195 28.0426 0.411313 28.5316C0.265479 29.4262 0.406411 30.4054 0.443175 31.3024C0.483617 32.2607 0.526509 33.2179 0.538764 34.1762C0.544891 34.7093 0.537538 35.2411 0.522832 35.773L0.488519 37.5279C0.468911 38.4679 0.460332 39.3968 0.530185 40.3343C0.557146 40.6884 0.576754 41.0451 0.574303 41.4005C0.570626 41.8833 0.56695 42.3674 0.563273 42.8502L0.493421 44.0156C0.483617 44.2105 0.364744 45.8183 0.253224 46.5475C0.220136 46.7706 0.196852 46.8759 0.577979 46.9041C1.71033 46.9875 2.7569 47.0696 3.89293 47.0843C5.58778 47.1088 6.56082 46.9813 8.2569 47.0156C8.76793 47.0255 9.27773 47.05 9.78631 47.0929L11.4995 47.2362C14.3525 47.3134 17.214 47.4115 20.0669 47.4642L21.7814 47.675L23.4946 47.8024L25.2152 47.7583L26.9444 47.7191L28.665 47.7877L30.3758 47.9531L32.1049 47.936C32.5326 47.9311 32.9665 47.8576 33.3954 47.8331C33.9922 47.8012 34.5927 47.7938 35.192 47.7975C35.7875 47.8 36.3488 47.6088 36.926 47.4666C37.5069 47.3232 38.1368 47.3551 38.7312 47.322C39.7177 47.2656 40.6821 47.1872 41.6736 47.2203C42.6687 47.2546 42.9407 47.3134 43.9358 47.3134C44.5339 47.3147 45.1307 47.3024 45.7275 47.2804C45.8157 47.2779 46.7042 47.2509 47.1662 47.2326C47.4885 47.2203 47.4223 47.0806 47.4052 46.9679C47.3206 46.3502 47.225 45.1125 47.2839 44.4875C47.3353 43.9544 47.4076 44.1443 47.4089 43.6063C47.4089 43.0328 47.3733 42.0009 47.3586 41.4274L47.5081 39.686C47.5302 39.1088 47.5768 38.5304 47.5498 37.9544Z" fill="white"/>
<path id="Vector_3" fill-rule="evenodd" clip-rule="evenodd" d="M21.2647 14.6928C21.2843 14.7382 21.3174 14.7786 21.3811 14.8178C21.5147 14.9012 21.7108 14.9637 21.864 15.0065C22.2782 15.1193 22.712 15.1634 23.1434 15.1671C23.7378 15.1708 24.3689 15.0972 24.9228 14.9502C25.614 14.7602 26.174 14.4416 26.3971 14.0384C26.5037 13.5923 26.5919 13.0298 26.6569 12.4183C26.7182 11.8852 26.7549 11.1671 26.8052 10.6266C26.8407 10.2921 26.8824 9.95753 26.9314 9.6242C26.9731 9.3313 27.0282 9.10949 26.8162 8.86929C26.663 8.69527 26.4498 8.56047 26.2574 8.43179C25.8432 8.15238 25.3713 8.08498 24.8726 8.08008C24.2463 8.23449 23.6152 8.39013 22.989 8.54454C22.6691 8.80802 22.2782 9.50532 21.94 10.3497C21.6912 10.9759 21.4816 11.835 21.3419 12.4992C21.1814 13.2467 21.1128 13.9477 21.2206 14.4257C21.2451 14.5298 21.2341 14.6156 21.2647 14.6928Z" fill="#FAB220"/>
<path id="Vector_4" fill-rule="evenodd" clip-rule="evenodd" d="M13.0673 16.5535C13.1837 16.6258 13.3835 16.6356 13.5158 16.6638C13.8234 16.7336 14.2144 16.8868 14.533 16.8709C14.7279 16.8611 14.9472 16.7716 15.1359 16.7201C15.4313 16.638 15.734 16.426 16.0097 16.29C16.3185 16.1392 16.5367 15.9321 16.7573 15.6736C16.848 15.5706 16.9705 15.475 17.0171 15.3415C17.071 15.1883 17.0036 15.0204 16.9852 14.866C16.9337 14.4726 16.9129 14.0755 16.8578 13.6821C16.7757 13.0939 16.0465 11.8831 15.8026 11.3316C15.6176 10.8978 15.5551 10.7385 15.2634 10.5142C14.8247 10.176 14.06 10.1834 13.4717 10.1589C12.9803 10.138 11.6237 10.0069 11.3259 10.5682C11.0869 10.8966 11.3259 11.5951 11.3541 12.0596C11.3872 12.5535 11.4484 13.1797 11.5943 13.812C11.7254 14.3794 11.9276 14.9505 12.1776 15.4444C12.4154 15.9138 12.7033 16.3096 13.0673 16.5535Z" fill="#4DBE4B"/>
<path id="Vector_5" fill-rule="evenodd" clip-rule="evenodd" d="M30.5359 15.8389C30.7173 15.9957 30.8999 16.1587 31.08 16.318C31.5077 16.5962 32.0678 16.8217 32.5334 16.8499C33.0261 16.8793 33.7957 16.3732 34.243 15.8364C34.6278 15.3646 35.2503 14.6501 35.7773 13.9234C36.3239 13.1624 36.7663 12.3781 36.7467 11.8376C36.7307 11.3854 36.2785 10.8009 35.8153 10.6514C35.2491 10.4639 34.5959 10.4614 34.0126 10.356C33.7651 10.3119 33.5751 10.1624 33.3227 10.0999C33.129 10.0509 31.944 10.4418 31.8349 10.7702C31.83 10.8168 31.2577 11.6526 30.7246 12.4516C30.2712 13.1293 29.8386 13.7776 29.8141 13.8867C29.7847 14.4173 30.0163 14.5938 30.1609 14.8916C30.3116 15.2065 30.3055 15.4786 30.5359 15.8389Z" fill="#F1511B"/>
</g>
</g>
</svg>
