<svg width="112" height="22" viewBox="0 0 112 22" fill="none" xmlns="http://www.w3.org/2000/svg">
<g id="&#234;&#180;&#145;&#236;&#163;&#188;&#234;&#180;&#145;&#236;&#151;&#173;&#236;&#139;&#156;">
<path d="M15.5779 13.5915C16.7619 14.5355 17.3539 15.6555 17.3539 16.9515C17.3539 17.6395 17.1859 18.2715 16.8499 18.8475C16.5139 19.4235 16.0739 19.9355 15.5299 20.3835C14.9699 20.7995 14.3139 21.1275 13.5619 21.3675C12.8259 21.6075 12.0659 21.7275 11.2819 21.7275C10.4659 21.7275 9.68187 21.6075 8.92987 21.3675C8.17787 21.1275 7.53787 20.7995 7.00987 20.3835C6.44987 19.9355 6.00987 19.4235 5.68987 18.8475C5.36987 18.2715 5.20987 17.6395 5.20987 16.9515C5.20987 16.3115 5.36187 15.7035 5.66587 15.1275C5.98587 14.5355 6.43387 14.0235 7.00987 13.5915C7.53787 13.1915 8.17787 12.8635 8.92987 12.6075C9.68187 12.3515 10.4659 12.2235 11.2819 12.2235C12.9619 12.2235 14.3939 12.6795 15.5779 13.5915ZM17.9059 4.37548C18.1939 4.39148 18.4819 4.39948 18.7699 4.39948H21.0019C21.0979 4.39948 21.1939 4.39148 21.2899 4.37548V6.31948H17.9059V12.3675H14.5459L14.5219 10.5675C14.0099 10.7915 13.4099 10.9755 12.7219 11.1195C12.0499 11.2635 11.3459 11.3355 10.6099 11.3355H0.817871V9.43948C0.897871 9.45548 0.969871 9.46348 1.03387 9.46348C1.11387 9.47948 1.20987 9.48748 1.32187 9.48748C1.43387 9.48748 1.54587 9.48748 1.65787 9.48748C1.88187 9.48748 2.12187 9.48748 2.37787 9.48748C2.64987 9.48748 2.90587 9.47948 3.14587 9.46348C3.40187 9.46348 3.67387 9.45548 3.96187 9.43948V4.95148H7.15387C7.13787 5.04748 7.12987 5.15948 7.12987 5.28748C7.11387 5.38348 7.10587 5.51148 7.10587 5.67148C7.10587 5.83148 7.10587 5.99148 7.10587 6.15148C7.10587 6.47148 7.10587 6.82348 7.10587 7.20748C7.10587 7.57548 7.11387 7.93548 7.12987 8.28748C7.12987 8.65548 7.13787 9.03948 7.15387 9.43948H10.7779C11.5619 9.43948 12.2659 9.39149 12.8899 9.29548C13.5299 9.19948 14.0819 9.07148 14.5459 8.91148V0.319484H17.9059C17.8899 0.415483 17.8819 0.511484 17.8819 0.607484V3.31948C17.8819 3.70348 17.8899 4.05548 17.9059 4.37548ZM9.43387 2.64748H1.58587V0.727484H10.4419C11.1299 0.727484 11.6899 0.943484 12.1219 1.37548C12.5699 1.79148 12.7939 2.33548 12.7939 3.00748V5.14348C12.7939 5.41548 12.7619 5.72748 12.6979 6.07948C12.6499 6.41548 12.5779 6.73548 12.4819 7.03948C12.4179 7.37548 12.3299 7.67948 12.2179 7.95148C12.1059 8.20748 11.9939 8.39948 11.8819 8.52748H8.97787C9.18587 8.07948 9.31387 7.55948 9.36187 6.96748C9.40987 6.37548 9.43387 5.79148 9.43387 5.21548V2.64748ZM13.1779 18.9675C13.7219 18.3915 13.9939 17.7195 13.9939 16.9515C13.9939 16.5995 13.9219 16.2555 13.7779 15.9195C13.6499 15.5675 13.4499 15.2555 13.1779 14.9835C12.9379 14.7275 12.6499 14.5195 12.3139 14.3595C11.9939 14.1995 11.6499 14.1195 11.2819 14.1195C10.9139 14.1195 10.5619 14.1995 10.2259 14.3595C9.88987 14.5195 9.58587 14.7275 9.31387 14.9835C9.07387 15.2555 8.88987 15.5675 8.76187 15.9195C8.63387 16.2555 8.56987 16.5995 8.56987 16.9515C8.56987 17.3355 8.63387 17.6955 8.76187 18.0315C8.88987 18.3675 9.07387 18.6795 9.31387 18.9675C9.58587 19.2075 9.88987 19.4075 10.2259 19.5675C10.5619 19.7435 10.9139 19.8315 11.2819 19.8315C12.0019 19.8315 12.6339 19.5435 13.1779 18.9675Z" fill="white"/>
<path d="M31.8874 2.71948H25.9354V0.799483H41.2234V2.71948H35.2954V2.83948C35.2954 4.32748 36.0874 5.65548 37.6714 6.82348C39.3034 7.97548 40.9674 8.55148 42.6634 8.55148L41.0554 9.99148C40.3194 9.99148 39.5834 9.90348 38.8474 9.72748C38.1274 9.55148 37.3754 9.28748 36.5914 8.93548C35.0714 8.19948 34.0634 7.35948 33.5674 6.41548C33.1034 7.40748 32.1034 8.24748 30.5674 8.93548C29.0154 9.63948 27.5274 9.99148 26.1034 9.99148L24.5194 8.55148C26.2474 8.55148 27.9034 7.97548 29.4874 6.82348C31.0874 5.68748 31.8874 4.35948 31.8874 2.83948V2.71948ZM31.9114 13.7835H23.9194V11.8635C23.9194 11.8635 24.1914 11.8635 24.7354 11.8635C25.2954 11.8635 26.0314 11.8635 26.9434 11.8635C27.8394 11.8795 28.8634 11.8875 30.0154 11.8875C31.1834 11.8875 32.3674 11.8875 33.5674 11.8875C34.7834 11.8875 35.9674 11.8875 37.1194 11.8875C38.2874 11.8875 39.3274 11.8795 40.2394 11.8635C41.1354 11.8635 41.8554 11.8635 42.3994 11.8635C42.9594 11.8635 43.2394 11.8635 43.2394 11.8635V13.7835H35.2714V17.3835C35.2714 17.8155 35.2714 18.2395 35.2714 18.6555C35.2714 19.0875 35.2714 19.4795 35.2714 19.8315C35.2714 20.1675 35.2714 20.4315 35.2714 20.6235C35.2714 20.8315 35.2714 20.9355 35.2714 20.9355H31.9114V13.7835Z" fill="white"/>
<path d="M61.7966 13.5915C62.9806 14.5355 63.5726 15.6555 63.5726 16.9515C63.5726 17.6395 63.4046 18.2715 63.0686 18.8475C62.7326 19.4235 62.2926 19.9355 61.7486 20.3835C61.1886 20.7995 60.5326 21.1275 59.7806 21.3675C59.0446 21.6075 58.2846 21.7275 57.5006 21.7275C56.6846 21.7275 55.9006 21.6075 55.1486 21.3675C54.3966 21.1275 53.7566 20.7995 53.2286 20.3835C52.6686 19.9355 52.2286 19.4235 51.9086 18.8475C51.5886 18.2715 51.4286 17.6395 51.4286 16.9515C51.4286 16.3115 51.5806 15.7035 51.8846 15.1275C52.2046 14.5355 52.6526 14.0235 53.2286 13.5915C53.7566 13.1915 54.3966 12.8635 55.1486 12.6075C55.9006 12.3515 56.6846 12.2235 57.5006 12.2235C59.1806 12.2235 60.6126 12.6795 61.7966 13.5915ZM64.1246 4.37548C64.4126 4.39148 64.7006 4.39948 64.9886 4.39948H67.2206C67.3166 4.39948 67.4126 4.39148 67.5086 4.37548V6.31948H64.1246V12.3675H60.7646L60.7406 10.5675C60.2286 10.7915 59.6286 10.9755 58.9406 11.1195C58.2686 11.2635 57.5646 11.3355 56.8286 11.3355H47.0366V9.43948C47.1166 9.45548 47.1886 9.46348 47.2526 9.46348C47.3326 9.47948 47.4286 9.48748 47.5406 9.48748C47.6526 9.48748 47.7646 9.48748 47.8766 9.48748C48.1006 9.48748 48.3406 9.48748 48.5966 9.48748C48.8686 9.48748 49.1246 9.47948 49.3646 9.46348C49.6206 9.46348 49.8926 9.45548 50.1806 9.43948V4.95148H53.3726C53.3566 5.04748 53.3486 5.15948 53.3486 5.28748C53.3326 5.38348 53.3246 5.51148 53.3246 5.67148C53.3246 5.83148 53.3246 5.99148 53.3246 6.15148C53.3246 6.47148 53.3246 6.82348 53.3246 7.20748C53.3246 7.57548 53.3326 7.93548 53.3486 8.28748C53.3486 8.65548 53.3566 9.03948 53.3726 9.43948H56.9966C57.7806 9.43948 58.4846 9.39149 59.1086 9.29548C59.7486 9.19948 60.3006 9.07148 60.7646 8.91148V0.319484H64.1246C64.1086 0.415483 64.1006 0.511484 64.1006 0.607484V3.31948C64.1006 3.70348 64.1086 4.05548 64.1246 4.37548ZM55.6526 2.64748H47.8046V0.727484H56.6606C57.3486 0.727484 57.9086 0.943484 58.3406 1.37548C58.7886 1.79148 59.0126 2.33548 59.0126 3.00748V5.14348C59.0126 5.41548 58.9806 5.72748 58.9166 6.07948C58.8686 6.41548 58.7966 6.73548 58.7006 7.03948C58.6366 7.37548 58.5486 7.67948 58.4366 7.95148C58.3246 8.20748 58.2126 8.39948 58.1006 8.52748H55.1966C55.4046 8.07948 55.5326 7.55948 55.5806 6.96748C55.6286 6.37548 55.6526 5.79148 55.6526 5.21548V2.64748ZM59.3966 18.9675C59.9406 18.3915 60.2126 17.7195 60.2126 16.9515C60.2126 16.5995 60.1406 16.2555 59.9966 15.9195C59.8686 15.5675 59.6686 15.2555 59.3966 14.9835C59.1566 14.7275 58.8686 14.5195 58.5326 14.3595C58.2126 14.1995 57.8686 14.1195 57.5006 14.1195C57.1326 14.1195 56.7806 14.1995 56.4446 14.3595C56.1086 14.5195 55.8046 14.7275 55.5326 14.9835C55.2926 15.2555 55.1086 15.5675 54.9806 15.9195C54.8526 16.2555 54.7886 16.5995 54.7886 16.9515C54.7886 17.3355 54.8526 17.6955 54.9806 18.0315C55.1086 18.3675 55.2926 18.6795 55.5326 18.9675C55.8046 19.2075 56.1086 19.4075 56.4446 19.5675C56.7806 19.7435 57.1326 19.8315 57.5006 19.8315C58.2206 19.8315 58.8526 19.5435 59.3966 18.9675Z" fill="white"/>
<path d="M76.4501 11.1195C75.6661 11.1195 74.9301 10.9835 74.2421 10.7115C73.5701 10.4235 72.9781 10.0475 72.4661 9.58348C71.9381 9.08748 71.5141 8.52748 71.1941 7.90348C70.8901 7.26348 70.7381 6.58348 70.7381 5.86348C70.7381 5.12748 70.8901 4.43948 71.1941 3.79948C71.4981 3.15948 71.9141 2.59148 72.4421 2.09548C72.9541 1.63148 73.5461 1.25548 74.2181 0.967484C74.9061 0.679484 75.6501 0.535484 76.4501 0.535484C77.3301 0.535484 78.1621 0.703484 78.9461 1.03948C79.7461 1.37548 80.4021 1.87148 80.9141 2.52748L85.0181 2.50348V1.68748C85.0181 1.49548 85.0181 1.28748 85.0181 1.06348C85.0341 0.823483 85.0421 0.631484 85.0421 0.487484V0.319484H88.3781C88.3621 0.623484 88.3541 0.943484 88.3541 1.27948V8.83948C88.3541 9.81548 88.3621 10.7915 88.3781 11.7675H85.0181V9.34348H80.7221C80.1141 9.95148 79.4421 10.3995 78.7061 10.6875C77.9861 10.9755 77.2341 11.1195 76.4501 11.1195ZM88.3781 15.2955V20.9595H85.0421V17.9595C85.0421 17.0955 85.0341 16.1115 85.0181 15.0075C82.8581 14.9915 80.9301 14.9835 79.2341 14.9835C78.5141 14.9835 77.8101 14.9835 77.1221 14.9835C76.4341 14.9835 75.8101 14.9835 75.2501 14.9835C74.7061 14.9835 74.2661 14.9915 73.9301 15.0075C73.6101 15.0075 73.4501 15.0075 73.4501 15.0075V13.0875H86.0261C86.7301 13.0875 87.3061 13.2955 87.7541 13.7115C88.1701 14.1115 88.3781 14.6395 88.3781 15.2955ZM76.4261 9.22348C76.7621 9.22348 77.0661 9.13548 77.3381 8.95948C77.6261 8.76748 77.8901 8.51148 78.1301 8.19148C78.3221 7.87148 78.4821 7.51148 78.6101 7.11148C78.7381 6.69548 78.8021 6.27948 78.8021 5.86348C78.8021 5.41548 78.7381 4.98348 78.6101 4.56748C78.4821 4.15148 78.3221 3.78348 78.1301 3.46348C77.8901 3.15948 77.6261 2.91948 77.3381 2.74348C77.0661 2.55148 76.7621 2.45548 76.4261 2.45548C76.1061 2.45548 75.8021 2.55148 75.5141 2.74348C75.2421 2.91948 75.0101 3.15948 74.8181 3.46348C74.5781 3.78348 74.3941 4.15148 74.2661 4.56748C74.1541 4.98348 74.0981 5.41548 74.0981 5.86348C74.0981 6.19948 74.1461 6.56748 74.2421 6.96748C74.3541 7.35148 74.4981 7.71948 74.6741 8.07148C74.8821 8.40748 75.1301 8.68748 75.4181 8.91148C75.7061 9.11948 76.0421 9.22348 76.4261 9.22348ZM81.9221 7.49548H85.0181V4.39948H81.9941C82.0901 4.92748 82.1381 5.44748 82.1381 5.95948C82.1541 6.47148 82.0821 6.98348 81.9221 7.49548Z" fill="white"/>
<path d="M107.846 0.271484H111.182C111.182 0.271484 111.182 0.575484 111.182 1.18348C111.182 1.77548 111.182 2.55148 111.182 3.51148C111.166 4.48748 111.158 5.59148 111.158 6.82348C111.158 8.05548 111.158 9.31948 111.158 10.6155C111.158 11.8955 111.158 13.1595 111.158 14.4075C111.158 15.6395 111.166 16.7355 111.182 17.6955C111.182 18.6715 111.182 19.4555 111.182 20.0475C111.182 20.6395 111.182 20.9355 111.182 20.9355H107.846C107.846 20.9355 107.846 20.6395 107.846 20.0475C107.846 19.4555 107.854 18.6715 107.87 17.6955C107.87 16.7355 107.87 15.6395 107.87 14.4075C107.87 13.1595 107.87 11.8955 107.87 10.6155C107.87 9.31948 107.87 8.05548 107.87 6.82348C107.87 5.59148 107.87 4.48748 107.87 3.51148C107.854 2.55148 107.846 1.77548 107.846 1.18348C107.846 0.575484 107.846 0.271484 107.846 0.271484ZM101.318 4.71148C101.318 5.68748 101.462 6.60748 101.75 7.47148C102.038 8.31948 102.414 9.07948 102.878 9.75148C103.374 10.4235 103.934 10.9835 104.558 11.4315C105.198 11.8635 105.854 12.1355 106.526 12.2475L104.894 13.7115C104.35 13.6635 103.798 13.5195 103.238 13.2795C102.678 13.0235 102.15 12.6955 101.654 12.2955C101.158 11.9275 100.726 11.5115 100.358 11.0475C99.9902 10.5675 99.7342 10.0955 99.5902 9.63148C99.4942 10.0955 99.2623 10.5675 98.8942 11.0475C98.5262 11.5115 98.1022 11.9275 97.6222 12.2955C97.1102 12.6955 96.5662 13.0235 95.9902 13.2795C95.4303 13.5195 94.8862 13.6635 94.3582 13.7115L92.7022 12.2475C93.3742 12.1355 94.0222 11.8635 94.6462 11.4315C95.2862 10.9995 95.8462 10.4475 96.3262 9.77548C96.8063 9.10348 97.1902 8.34348 97.4782 7.49548C97.7663 6.63148 97.9102 5.70348 97.9102 4.71148V0.727484H101.318C101.302 0.807484 101.294 0.903484 101.294 1.01548V3.70348C101.294 4.03948 101.302 4.37548 101.318 4.71148Z" fill="white"/>
</g>
</svg>
