<svg width="24" height="24" viewBox="0 0 24 24" fill="none" xmlns="http://www.w3.org/2000/svg">
<g id="icon=person">
<path id="Subtract" fill-rule="evenodd" clip-rule="evenodd" d="M12 22C17.5228 22 22 17.5228 22 12C22 6.47715 17.5228 2 12 2C6.47715 2 2 6.47715 2 12C2 17.5228 6.47715 22 12 22ZM14.9999 8.5C14.9999 10.1569 13.6567 11.5 11.9999 11.5C10.343 11.5 8.99986 10.1569 8.99986 8.5C8.99986 6.84315 10.343 5.5 11.9999 5.5C13.6567 5.5 14.9999 6.84315 14.9999 8.5ZM9.99981 12.5H13.9998C14.9998 12.5 16.9148 13.7191 17.4995 15C17.7235 15.4907 17.8472 16.0435 17.9156 16.5043C17.9966 17.0507 17.552 17.5 16.9996 17.5H6.99963C6.44747 17.5 6.00296 17.0511 6.08373 16.5049C6.15187 16.0441 6.27543 15.4911 6.49945 15C7.08381 13.7189 8.99981 12.5 9.99981 12.5Z" fill="#B8B8B8"/>
</g>
</svg>
