<svg width="48" height="48" viewBox="0 0 48 48" fill="none" xmlns="http://www.w3.org/2000/svg">
<g id="Clip path group">
<g id="Group">
<path id="Vector" d="M24.6242 25.4488C35.8099 23.2595 42.0643 29.5046 45.3215 35.0262C47.0304 31.7234 48 27.9769 48 24.0018C48 22.4042 47.842 20.8416 47.5447 19.3328C22.7545 15.0484 14.9331 33.91 12.4849 45.0581C15.9054 46.9327 19.8295 48.0005 24.0054 48.0005C30.6643 48.0005 36.6884 45.2867 41.0358 40.9082C36.15 25.7715 24.6295 25.4488 24.6295 25.4488H24.6242Z" fill="white"/>
<path id="Subtract" fill-rule="evenodd" clip-rule="evenodd" d="M39.5393 5.71831C39.5399 5.71729 39.5405 5.71627 39.5411 5.71525H39.5357C39.5369 5.71626 39.5381 5.71729 39.5393 5.71831ZM29.1696 16.7584C29.1696 16.7584 35.2189 13.2388 39.5393 5.71831C42.6501 8.36439 45.0782 11.7951 46.5187 15.7015C40.3312 15.7122 13.283 17.1 6.35089 40.2622C2.41072 35.9859 0 30.2733 0 23.9987C0 21.4006 0.415177 18.8993 1.17857 16.5594C14.2179 19.9913 27.9268 17.5841 27.9268 17.5841C15.1554 18.8778 7.30714 13.956 3.82768 10.9921C8.10268 4.37856 15.5384 0 23.9973 0C27.975 0 31.725 0.96823 35.025 2.68146C34.2054 6.95243 32.5339 12.6999 29.1696 16.7584ZM23.2339 8.28125C25.4491 8.28125 27.2464 10.0617 27.2464 12.2537C27.2464 14.4483 25.4491 16.2261 23.2339 16.2261C21.0187 16.2261 19.2214 14.4456 19.2214 12.2537C19.2214 10.0617 21.0187 8.28125 23.2339 8.28125Z" fill="white"/>
</g>
</g>
</svg>
