<svg width="24" height="24" viewBox="0 0 24 24" fill="none" xmlns="http://www.w3.org/2000/svg">
<g id="Cancel">
<path id="Subtract" fill-rule="evenodd" clip-rule="evenodd" d="M12 21C16.9706 21 21 16.9706 21 12C21 7.02944 16.9706 3 12 3C7.02944 3 3 7.02944 3 12C3 16.9706 7.02944 21 12 21ZM7.75725 9.17146C7.36672 8.78094 7.36672 8.14777 7.75725 7.75725C8.14777 7.36672 8.78094 7.36672 9.17146 7.75725L12 10.5858L14.8284 7.7574C15.2189 7.36688 15.8521 7.36688 16.2426 7.7574C16.6331 8.14792 16.6331 8.78109 16.2426 9.17161L13.4142 12L16.2425 14.8283C16.6331 15.2188 16.6331 15.852 16.2425 16.2425C15.852 16.6331 15.2188 16.6331 14.8283 16.2425L12 13.4142L9.17153 16.2427C8.78101 16.6332 8.14784 16.6332 7.75732 16.2427C7.3668 15.8522 7.3668 15.219 7.75732 14.8285L10.5858 12L7.75725 9.17146Z" fill="#B8B8B8"/>
</g>
</svg>
