<svg width="24" height="24" viewBox="0 0 24 24" fill="none" xmlns="http://www.w3.org/2000/svg">
<path fill-rule="evenodd" clip-rule="evenodd" d="M12 22C17.5228 22 22 17.5228 22 12C22 6.47715 17.5228 2 12 2C6.47715 2 2 6.47715 2 12C2 17.5228 6.47715 22 12 22ZM16.7365 6.61148L17.3885 7.26352C17.7113 7.58626 17.6733 8.12001 17.3082 8.39385L17.0204 8.60972C16.7218 8.83366 16.304 8.80397 16.04 8.54005L15.46 7.95995C15.196 7.69603 15.1663 7.27821 15.3903 6.97962L15.6061 6.69181C15.88 6.32668 16.4137 6.28874 16.7365 6.61148ZM6.23717 17.2885L6.69239 15.9228C6.73025 15.8093 6.79337 15.7077 6.87897 15.6241C7.38502 15.1293 9.26755 13.2833 10.5 12C11.6792 10.7721 13.2778 9.00312 14.0955 8.092C14.3836 7.77093 14.8822 7.75716 15.1872 8.06221L15.9378 8.81279C16.2428 9.11784 16.2291 9.61637 15.908 9.90451C14.9969 10.7222 13.2279 12.3208 12 13.5C10.7167 14.7324 8.8707 16.615 8.37595 17.121C8.29226 17.2066 8.19074 17.2698 8.07717 17.3076L6.71151 17.7628C6.41835 17.8605 6.13945 17.5816 6.23717 17.2885Z" fill="#B8B8B8"/>
</svg>
