<svg width="80" height="80" viewBox="0 0 80 80" fill="none" xmlns="http://www.w3.org/2000/svg">
<g id="Frame 386">
<rect width="80" height="80" fill="white"/>
<g id="Group 7157">
<circle id="Ellipse 111" cx="40" cy="40" r="35" stroke="#0F4F96" stroke-width="10"/>
<g id="Vector">
<path d="M65.7699 67.2686L65.0236 67.9254L61.9186 64.3977L60.0815 66.0146L59.5283 65.386L62.1116 63.1122L65.7699 67.2686Z" fill="white"/>
<path d="M65.0867 64.1346C64.641 63.7615 64.3233 63.3527 64.1337 62.908C63.9444 62.4669 63.8853 62.0252 63.9565 61.5828C64.0296 61.142 64.2224 60.7349 64.5349 60.3615C64.8475 59.9882 65.2143 59.7267 65.6353 59.5772C66.0567 59.4312 66.5029 59.4125 66.974 59.5209C67.4451 59.6293 67.9025 59.8693 68.3462 60.2407C68.7958 60.6171 69.1145 61.0268 69.3021 61.4698C69.4898 61.9128 69.5479 62.3537 69.4764 62.7926C69.4033 63.2334 69.2105 63.6405 68.898 64.0138C68.5854 64.3872 68.2186 64.6486 67.7976 64.7982C67.3765 64.9477 66.9322 64.9681 66.4647 64.8593C65.9956 64.7525 65.5363 64.511 65.0867 64.1346ZM65.7273 63.3693C66.044 63.6344 66.3564 63.8112 66.6647 63.8997C66.9713 63.9901 67.2567 63.9947 67.5209 63.9133C67.7835 63.8339 68.0138 63.676 68.2118 63.4395C68.4066 63.2068 68.5215 62.9523 68.5567 62.676C68.5903 62.4015 68.5364 62.1204 68.3951 61.8325C68.2521 61.5466 68.0223 61.2711 67.7056 61.006C67.3889 60.7409 67.0773 60.5632 66.7707 60.4727C66.4624 60.3842 66.1762 60.3807 65.9119 60.462C65.6461 60.5453 65.4158 60.7033 65.2211 60.9359C65.0231 61.1724 64.9081 61.4269 64.8762 61.6994C64.8426 61.9738 64.8973 62.254 65.0403 62.5399C65.1816 62.8278 65.4106 63.1042 65.7273 63.3693Z" fill="white"/>
<path d="M69.1869 58.9798C68.6794 58.6965 68.291 58.3541 68.0217 57.9526C67.7534 57.5547 67.6129 57.1317 67.6002 56.6838C67.5897 56.2371 67.7032 55.8012 67.9405 55.376C68.1779 54.9509 68.4894 54.6256 68.8752 54.4C69.2619 54.178 69.6968 54.0763 70.1798 54.0949C70.6629 54.1134 71.157 54.2638 71.6623 54.5459C72.1742 54.8317 72.5638 55.1747 72.8308 55.5749C73.0979 55.9751 73.2373 56.3974 73.249 56.8419C73.2595 57.2886 73.146 57.7245 72.9087 58.1496C72.6713 58.5748 72.3598 58.9001 71.974 59.1256C71.5883 59.3511 71.1556 59.4541 70.676 59.4345C70.1952 59.4172 69.6989 59.2656 69.1869 58.9798ZM69.6734 58.1084C70.034 58.3097 70.374 58.425 70.6933 58.4544C71.0114 58.486 71.2927 58.4372 71.5371 58.308C71.7803 58.181 71.977 57.9828 72.1274 57.7135C72.2753 57.4486 72.3407 57.1771 72.3237 56.899C72.3055 56.6231 72.2 56.357 72.0074 56.1006C71.8136 55.8464 71.5364 55.6186 71.1758 55.4173C70.8152 55.216 70.4758 55.0995 70.1577 55.0679C69.8384 55.0385 69.5565 55.0884 69.3121 55.2177C69.0665 55.3491 68.8697 55.5473 68.7218 55.8122C68.5714 56.0815 68.506 56.353 68.5255 56.6266C68.5437 56.9025 68.6498 57.1676 68.8436 57.4218C69.0362 57.6782 69.3128 57.907 69.6734 58.1084Z" fill="white"/>
<path d="M76.3243 49.7325L76.0046 50.6739L73.7778 49.9177L72.9491 52.3582L75.1759 53.1143L74.855 54.0593L69.6121 52.279L69.933 51.334L72.1634 52.0914L72.9921 49.6509L70.7617 48.8936L71.0814 47.9521L76.3243 49.7325Z" fill="white"/>
<path d="M74.9642 47.3188C75.1838 47.3186 75.3817 47.2697 75.5578 47.172C75.7336 47.0768 75.877 46.9427 75.988 46.7697C76.1011 46.5997 76.1758 46.4039 76.212 46.1826C76.2611 45.8832 76.2291 45.6054 76.1161 45.3492C76.0051 45.096 75.8158 44.8803 75.5479 44.7021C75.2796 44.5264 74.9429 44.4053 74.5379 44.339C74.1278 44.2718 73.7676 44.2787 73.4573 44.3596C73.1491 44.4434 72.902 44.5876 72.7161 44.7922C72.5297 44.9994 72.4122 45.2514 72.3636 45.5482C72.3278 45.7671 72.334 45.9735 72.3823 46.1674C72.4331 46.3617 72.5239 46.5328 72.6547 46.6808C72.785 46.8314 72.9511 46.9451 73.1529 47.0221L72.9865 48.0139C72.6451 47.9063 72.3476 47.7271 72.0942 47.4764C71.8408 47.2256 71.6583 46.9206 71.5467 46.5613C71.435 46.202 71.4136 45.8123 71.4825 45.3922C71.5612 44.9117 71.7436 44.4999 72.0297 44.1567C72.318 43.8164 72.6909 43.574 73.1486 43.4294C73.6088 43.2852 74.1257 43.2601 74.6993 43.3541C75.2779 43.4489 75.7608 43.6391 76.148 43.9247C76.5352 44.2102 76.81 44.5588 76.9725 44.9703C77.1346 45.3844 77.1762 45.8316 77.0975 46.3121C77.0316 46.7146 76.8949 47.0681 76.6874 47.3725C76.4821 47.6799 76.2177 47.9142 75.8941 48.0757C75.5727 48.24 75.2085 48.3185 74.8016 48.3113L74.9642 47.3188Z" fill="white"/>
<path d="M76.0363 41.8685C76.192 41.8563 76.3282 41.8066 76.4446 41.7197C76.561 41.6353 76.6487 41.5171 76.7077 41.3653C76.7693 41.2161 76.802 41.0408 76.806 40.8394C76.81 40.6355 76.7829 40.4565 76.7247 40.3024C76.6664 40.1508 76.5833 40.0319 76.4754 39.9457C76.3674 39.862 76.242 39.8187 76.0993 39.8159C75.8903 39.8119 75.7267 39.8954 75.6087 40.0664C75.4905 40.2401 75.393 40.4676 75.3161 40.7492L75.1761 41.2627C75.0518 41.7524 74.8619 42.1427 74.6063 42.4334C74.3508 42.7242 74 42.8665 73.5539 42.8604C73.2302 42.8541 72.9464 42.7644 72.7024 42.5913C72.4584 42.4208 72.2707 42.1762 72.1392 41.8575C72.0077 41.5413 71.9462 41.164 71.9548 40.7257C71.9631 40.2975 72.0367 39.9254 72.1754 39.6093C72.3167 39.2959 72.5177 39.0538 72.7786 38.883C73.0395 38.7121 73.351 38.6226 73.7132 38.6144L73.6941 39.5931C73.5052 39.6047 73.3447 39.6615 73.2127 39.7634C73.0832 39.8655 72.9837 39.9999 72.9142 40.1669C72.8472 40.3338 72.8116 40.5231 72.8075 40.7346C72.8032 40.9538 72.8326 41.1482 72.8956 41.3177C72.9585 41.4872 73.049 41.619 73.167 41.7131C73.2875 41.8098 73.4255 41.8597 73.581 41.8627C73.7186 41.8654 73.8354 41.8281 73.9312 41.751C74.0296 41.6738 74.1121 41.5633 74.1786 41.4192C74.2451 41.2777 74.3086 41.0979 74.3689 40.8798L74.5418 40.2522C74.6759 39.7805 74.8666 39.4196 75.1137 39.1695C75.3607 38.9219 75.6767 38.8018 76.0615 38.8093C76.3827 38.8156 76.6639 38.909 76.9051 39.0897C77.1489 39.2704 77.3354 39.5162 77.4644 39.8273C77.596 40.1384 77.6581 40.4863 77.6506 40.8712C77.6431 41.2561 77.5689 41.5963 77.428 41.8918C77.287 42.19 77.0938 42.4208 76.8484 42.5843C76.6056 42.7478 76.3286 42.8304 76.0175 42.832L76.0363 41.8685Z" fill="white"/>
<path d="M76.1755 29.2581L76.392 30.2285L74.0968 30.7407L74.6581 33.2561L76.9533 32.7439L77.1707 33.718L71.7666 34.9239L71.5493 33.9498L73.8482 33.4368L73.2869 30.9214L70.988 31.4344L70.7714 30.4641L76.1755 29.2581Z" fill="white"/>
<path d="M73.6428 27.3261C73.8041 27.1958 73.926 27.0474 74.0088 26.8807C74.0938 26.713 74.1374 26.5349 74.1393 26.3465C74.1437 26.1571 74.1034 25.9599 74.0185 25.755C73.9034 25.4771 73.7308 25.2602 73.5008 25.1044C73.273 24.9476 72.9984 24.8641 72.6768 24.8538C72.3576 24.8425 72.0084 24.9154 71.6292 25.0725C71.2476 25.2305 70.9463 25.4256 70.7252 25.6579C70.5041 25.8902 70.3678 26.144 70.3162 26.4192C70.2679 26.6958 70.3038 26.9789 70.4238 27.2686C70.5311 27.5277 70.6737 27.7321 70.8516 27.8819C71.0329 28.0331 71.238 28.122 71.467 28.1486C71.6983 28.1742 71.9365 28.1362 72.1814 28.0348L72.236 28.2564L71.6595 26.8645L72.3837 26.5645L73.2426 28.6383L72.6279 28.8929C72.1992 29.0704 71.785 29.133 71.3853 29.0805C70.9865 29.0305 70.6322 28.8778 70.3223 28.6226C70.0125 28.3674 69.7702 28.029 69.5956 27.6075C69.4015 27.1388 69.3363 26.6815 69.4 26.2357C69.4671 25.7913 69.6574 25.3883 69.9712 25.0266C70.2849 24.6648 70.7079 24.3738 71.2402 24.1533C71.7796 23.9299 72.289 23.8376 72.7686 23.8763C73.2482 23.9149 73.6671 24.067 74.0254 24.3325C74.3837 24.598 74.655 24.9533 74.8394 25.3985C74.9945 25.773 75.0641 26.1442 75.0482 26.5123C75.0323 26.8803 74.937 27.2164 74.7622 27.5206C74.5884 27.8271 74.345 28.0755 74.032 28.2658L73.6428 27.3261Z" fill="white"/>
<path d="M68.1535 24.3754L67.6676 23.5079L72.4985 20.8023L72.9844 21.6697L68.1535 24.3754Z" fill="white"/>
<path d="M68.9289 15.56L69.5156 16.3626L67.617 17.7504L69.138 19.8311L71.0365 18.4433L71.6255 19.249L67.1554 22.5165L66.5665 21.7108L68.4681 20.3208L66.9471 18.2401L65.0455 19.6301L64.4588 18.8275L68.9289 15.56Z" fill="white"/>
<path d="M63.9871 13.1246C64.0974 12.9347 64.1546 12.739 64.1588 12.5376C64.1649 12.3378 64.1211 12.1465 64.0274 11.9635C63.9373 11.7802 63.8057 11.6173 63.6326 11.4746C63.3985 11.2816 63.1423 11.1696 62.8641 11.1384C62.5894 11.1069 62.3077 11.1622 62.0189 11.3041C61.7321 11.4476 61.4582 11.6777 61.1972 11.9944C60.9329 12.3151 60.7577 12.6298 60.6715 12.9387C60.589 13.2473 60.5894 13.5334 60.6727 13.797C60.758 14.0622 60.9167 14.2905 61.1489 14.4819C61.32 14.6229 61.5015 14.7213 61.6934 14.7771C61.8869 14.8309 62.0805 14.8385 62.2742 14.7999C62.4698 14.763 62.6517 14.6766 62.8197 14.5409L63.5933 15.1835C63.3286 15.4245 63.0241 15.5915 62.6799 15.6844C62.3358 15.7773 61.9803 15.7817 61.6137 15.6975C61.247 15.6133 60.8994 15.4358 60.5709 15.165C60.1952 14.8553 59.9309 14.4905 59.7782 14.0706C59.6291 13.6504 59.6071 13.2061 59.7123 12.7378C59.8191 12.2675 60.0574 11.8081 60.427 11.3596C60.8 10.9072 61.2072 10.5854 61.6488 10.3944C62.0904 10.2034 62.5299 10.1411 62.9673 10.2076C63.4067 10.2758 63.8142 10.4647 64.1899 10.7744C64.5047 11.0338 64.7414 11.3297 64.9002 11.6621C65.0626 11.9942 65.1322 12.3406 65.109 12.7014C65.0894 13.0619 64.9741 13.4162 64.7632 13.7643L63.9871 13.1246Z" fill="white"/>
<path d="M57.5445 6.31465L59.3239 7.37729C59.6828 7.59165 59.9509 7.83636 60.1281 8.11143C60.3053 8.38649 60.3888 8.67684 60.3785 8.98246C60.3703 9.28938 60.2754 9.59496 60.0938 9.89918C59.9121 10.2034 59.69 10.4286 59.4276 10.5747C59.1651 10.7208 58.8703 10.7794 58.5433 10.7503C58.2162 10.7213 57.8721 10.5989 57.511 10.3832L56.2371 9.62253L56.6646 8.90684L57.8235 9.59893C58.0401 9.72833 58.234 9.804 58.405 9.82594C58.5773 9.8457 58.7302 9.81828 58.8638 9.74368C58.9997 9.67039 59.1185 9.54838 59.2205 9.37767C59.3237 9.20476 59.3767 9.03896 59.3795 8.88025C59.3857 8.72066 59.3382 8.56905 59.2369 8.42542C59.1369 8.27961 58.9797 8.14265 58.7652 8.01456L57.9707 7.5401L55.5592 11.5782L54.7056 11.0684L57.5445 6.31465ZM58.3333 13.2349L57.3747 12.6624L57.5065 9.82386L58.4422 10.3826L58.3333 13.2349Z" fill="white"/>
<path d="M53.1536 4.34648L56.4656 5.75316L56.1382 6.52395L53.7414 5.50593L53.1494 6.89968L55.3737 7.84445L55.0494 8.60819L52.825 7.66343L52.2315 9.06069L54.6424 10.0847L54.315 10.8555L50.9891 9.44281L53.1536 4.34648Z" fill="white"/>
<path d="M46.4765 2.48191L47.1746 6.77272L47.2379 6.78739L49.751 3.24016L50.9394 3.51533L49.6903 8.90957L48.759 8.69392L49.619 4.97979L49.5669 4.96771L47.2173 8.3173L46.5207 8.15599L45.8805 4.10627L45.8358 4.09592L44.9741 7.81749L44.039 7.60098L45.2881 2.20674L46.4765 2.48191Z" fill="white"/>
<path d="M38.0746 1.91404L39.7034 5.94459L39.7684 5.9449L41.4357 1.93012L42.6555 1.93596L42.629 7.47286L41.6731 7.46829L41.6913 3.65593L41.6378 3.65568L40.0863 7.44158L39.3712 7.43816L37.8522 3.62991L37.8063 3.62969L37.7881 7.4497L36.8283 7.44511L36.8548 1.9082L38.0746 1.91404Z" fill="white"/>
<path d="M35.1388 4.91222C35.2545 5.48181 35.2479 5.99953 35.1188 6.46538C34.9917 6.92823 34.7625 7.3104 34.4309 7.61189C34.0989 7.91089 33.6943 8.10887 33.2171 8.20583C32.74 8.30279 32.2902 8.27844 31.8678 8.13276C31.4474 7.98407 31.0868 7.72046 30.7862 7.34192C30.4856 6.96339 30.2776 6.49058 30.1624 5.92349C30.0456 5.34891 30.052 4.82994 30.1816 4.36658C30.3111 3.90323 30.5407 3.5223 30.8702 3.22382C31.2023 2.92482 31.6069 2.72684 32.084 2.62988C32.5612 2.53291 33.0109 2.55727 33.4334 2.70295C33.8558 2.84863 34.2158 3.10975 34.5134 3.48629C34.8136 3.86233 35.022 4.33764 35.1388 4.91222ZM34.1607 5.11097C34.0785 4.70626 33.9445 4.37321 33.7587 4.11181C33.5754 3.8499 33.3551 3.66835 33.0978 3.56715C32.843 3.46545 32.5645 3.44531 32.2622 3.50674C31.9649 3.56715 31.7163 3.69441 31.5165 3.88851C31.3191 4.0821 31.1859 4.33548 31.1168 4.64867C31.0503 4.96134 31.0582 5.32003 31.1404 5.72474C31.2227 6.12944 31.3554 6.46275 31.5387 6.72466C31.7245 6.98606 31.946 7.16736 32.2033 7.26855C32.4631 7.36924 32.7416 7.38938 33.0389 7.32897C33.3412 7.26754 33.5898 7.14028 33.7847 6.9472C33.9821 6.75361 34.114 6.50048 34.1805 6.1878C34.2496 5.87462 34.243 5.51568 34.1607 5.11097Z" fill="white"/>
<path d="M28.3307 5.60441C28.2188 5.41545 28.076 5.26999 27.9022 5.16805C27.7308 5.06518 27.5424 5.00996 27.3371 5.00241C27.1331 4.99156 26.9266 5.02684 26.7176 5.10825C26.4349 5.21834 26.212 5.38721 26.049 5.61485C25.8874 5.83919 25.7981 6.112 25.7809 6.43329C25.7662 6.75365 25.8333 7.10505 25.9822 7.4875C26.133 7.8747 26.3222 8.18129 26.5497 8.40729C26.7787 8.62998 27.0286 8.76931 27.2994 8.82527C27.5725 8.88031 27.8492 8.85325 28.1295 8.74408C28.3362 8.66359 28.5107 8.55322 28.653 8.41297C28.7945 8.27035 28.8956 8.1051 28.9565 7.91725C29.0198 7.72846 29.0332 7.52762 28.9968 7.31473L29.9353 6.95333C30.0164 7.30202 30.0134 7.64923 29.9265 7.99497C29.8396 8.34071 29.6698 8.65303 29.4173 8.93193C29.1648 9.21083 28.8402 9.42753 28.4435 9.58202C27.9898 9.75873 27.5425 9.81122 27.1014 9.7395C26.6618 9.66448 26.2634 9.46676 25.906 9.14632C25.5478 8.8235 25.2632 8.39129 25.0522 7.84969C24.8395 7.30334 24.7575 6.79084 24.8064 6.3122C24.8552 5.83356 25.0155 5.41961 25.2871 5.07035C25.561 4.72017 25.9249 4.45672 26.3786 4.28002C26.7587 4.13199 27.1325 4.06984 27.5001 4.09354C27.8692 4.11395 28.2055 4.22235 28.5091 4.41874C28.8141 4.61183 29.067 4.8854 29.2678 5.23944L28.3307 5.60441Z" fill="white"/>
<path d="M20.836 9.49558L20.2211 9.88252L19.4119 7.85713L20.2372 7.3378L20.836 9.49558Z" fill="white"/>
<path d="M18.7119 10.12C18.605 10.006 18.4812 9.93078 18.3406 9.89423C18.2019 9.85612 18.0549 9.86146 17.8994 9.91023C17.7445 9.95544 17.5872 10.0394 17.4275 10.1622C17.2658 10.2865 17.143 10.4195 17.0591 10.5613C16.9771 10.7014 16.9362 10.8406 16.9364 10.9788C16.9385 11.1154 16.9831 11.2403 17.0701 11.3535C17.1975 11.5192 17.3649 11.5947 17.5723 11.58C17.7817 11.5637 18.0202 11.4976 18.2881 11.3817L18.7766 11.1701C19.2365 10.9611 19.6598 10.8655 20.0465 10.8833C20.4333 10.9011 20.7636 11.086 21.0376 11.4381C21.2349 11.6948 21.3423 11.9724 21.3596 12.271C21.379 12.568 21.3053 12.8674 21.1387 13.1693C20.974 13.4695 20.7179 13.7533 20.3703 14.0206C20.0308 14.2816 19.6943 14.4567 19.3609 14.5459C19.028 14.6315 18.7133 14.6258 18.4169 14.5289C18.1205 14.4321 17.8559 14.2448 17.6232 13.9672L18.3992 13.3704C18.5263 13.5107 18.6709 13.6004 18.833 13.6398C18.9936 13.6771 19.1607 13.6708 19.3345 13.6208C19.5067 13.5687 19.6767 13.4782 19.8444 13.3492C20.0182 13.2156 20.1516 13.0712 20.2446 12.9161C20.3376 12.761 20.3839 12.608 20.3836 12.4571C20.3838 12.3026 20.3365 12.1637 20.2417 12.0404C20.1578 11.9313 20.0558 11.8634 19.9356 11.8368C19.8139 11.8082 19.6761 11.8129 19.522 11.851C19.37 11.8875 19.19 11.9503 18.982 12.0395L18.384 12.2968C17.9319 12.4868 17.5311 12.5635 17.1814 12.5269C16.8337 12.4888 16.5425 12.3171 16.3079 12.012C16.1121 11.7574 16.0093 11.4794 15.9996 11.1782C15.9883 10.875 16.0637 10.5758 16.2259 10.2806C16.3865 9.98348 16.6194 9.71758 16.9245 9.48294C17.2297 9.24829 17.5416 9.09362 17.8604 9.01891C18.1813 8.94265 18.4822 8.94923 18.7632 9.03866C19.0426 9.12606 19.2802 9.2907 19.4758 9.53259L18.7119 10.12Z" fill="white"/>
<path d="M12.1744 13.8112L12.8815 13.1123L16.1852 16.4546L17.9257 14.7342L18.5144 15.3298L16.0668 17.7491L12.1744 13.8112Z" fill="white"/>
<path d="M8.68456 18.0759L9.95363 16.4373C10.2096 16.1068 10.4848 15.8701 10.7792 15.7273C11.0736 15.5845 11.3719 15.5366 11.674 15.5836C11.9778 15.6286 12.2697 15.7596 12.5498 15.9766C12.83 16.1935 13.0268 16.4411 13.1403 16.7192C13.2538 16.9974 13.2764 17.297 13.2082 17.6182C13.14 17.9394 12.9771 18.2663 12.7195 18.5989L11.811 19.7719L11.152 19.2614L11.9785 18.1942C12.1331 17.9947 12.2315 17.8114 12.2739 17.6443C12.3142 17.4756 12.3054 17.3205 12.2474 17.1788C12.191 17.0352 12.0842 16.9025 11.927 16.7807C11.7678 16.6574 11.6096 16.5848 11.4523 16.563C11.2947 16.5376 11.1384 16.5666 10.9837 16.6498C10.8269 16.7315 10.672 16.8712 10.519 17.0687L9.95239 17.8003L13.6709 20.6803L13.0621 21.4663L8.68456 18.0759ZM15.6494 18.1257L14.9657 19.0085L12.1637 18.5359L12.831 17.6743L15.6494 18.1257Z" fill="white"/>
<path d="M12.4849 22.4303L11.9634 23.2767L7.24955 20.3719L7.77114 19.5255L12.4849 22.4303Z" fill="white"/>
<path d="M7.64363 23.2434C7.43858 23.2129 7.24672 23.2236 7.06803 23.2756C6.88703 23.3265 6.72653 23.4151 6.58651 23.5412C6.44418 23.6663 6.32635 23.8294 6.23301 24.0306C6.10641 24.3035 6.06367 24.5773 6.10479 24.8521C6.1436 25.1258 6.26807 25.3845 6.47822 25.6282C6.68606 25.8707 6.97613 26.0784 7.34844 26.2511C7.72307 26.4249 8.0707 26.5145 8.39136 26.52C8.71201 26.5254 8.99106 26.4539 9.22852 26.3055C9.46473 26.1538 9.64882 25.9357 9.78078 25.6512C9.89879 25.3969 9.95269 25.1535 9.94247 24.9211C9.931 24.6854 9.85753 24.4742 9.72205 24.2877C9.58426 24.1002 9.39511 23.9506 9.15461 23.839L9.28078 23.6488L8.64672 25.0155L7.93563 24.6856L8.88028 22.6495L9.48384 22.9295C9.90472 23.1247 10.2312 23.3872 10.4632 23.7169C10.6964 24.0442 10.8239 24.4083 10.8459 24.8091C10.8679 25.21 10.7829 25.6174 10.5909 26.0313C10.3774 26.4915 10.085 26.849 9.71381 27.104C9.34137 27.3555 8.91584 27.4883 8.43722 27.5023C7.9586 27.5163 7.45798 27.4021 6.93535 27.1596C6.40579 26.914 5.99289 26.6016 5.69666 26.2224C5.40043 25.8433 5.22871 25.4321 5.18152 24.9886C5.13432 24.5452 5.21211 24.1049 5.41488 23.6679C5.58547 23.3002 5.81157 22.9976 6.09317 22.7601C6.37478 22.5226 6.68668 22.3652 7.02886 22.2879C7.37211 22.2083 7.71973 22.2192 8.07171 22.3207L7.64363 23.2434Z" fill="white"/>
<path d="M2.06531 35.8451L6.2918 34.8276L6.30168 34.7634L2.57624 32.523L2.76166 31.3173L8.23428 32.159L8.08897 33.1038L4.32087 32.5243L4.31273 32.5772L7.82885 34.6694L7.72015 35.3762L3.72972 36.3177L3.72275 36.3631L7.4984 36.9437L7.35251 37.8924L1.87988 37.0507L2.06531 35.8451Z" fill="white"/>
<path d="M7.56287 43.4356L1.95469 41.7008L1.90726 40.4742L7.36474 38.3116L7.40582 39.3738L3.06118 41.0228L3.06295 41.0686L7.52194 42.3772L7.56287 43.4356ZM5.23725 39.5036L6.03584 39.4727L6.14857 42.3882L5.34998 42.419L5.23725 39.5036Z" fill="white"/>
<path d="M7.72703 44.5206L7.91237 45.3842L4.76434 48.7388L4.77477 48.7874L8.47239 47.9939L8.681 48.966L3.26729 50.1277L3.07954 49.2529L6.23292 45.905L6.22249 45.8564L2.52112 46.6507L2.31332 45.6823L7.72703 44.5206Z" fill="white"/>
<path d="M9.16057 50.3515L9.50222 51.1661L7.02789 55.0443L7.04712 55.0902L10.5346 53.6274L10.9191 54.5443L5.81311 56.6859L5.46702 55.8607L7.94784 51.9881L7.92861 51.9422L4.43762 53.4065L4.05455 52.4932L9.16057 50.3515Z" fill="white"/>
<path d="M9.15174 57.0766C9.63666 56.7562 10.1193 56.5687 10.5996 56.5141C11.0764 56.4588 11.5166 56.5285 11.9202 56.7231C12.3217 56.9192 12.6567 57.2204 12.9251 57.6266C13.1935 58.0328 13.3392 58.4591 13.3621 58.9053C13.3815 59.3508 13.2719 59.7838 13.0333 60.2042C12.7947 60.6246 12.434 60.9944 11.9512 61.3134C11.4621 61.6366 10.9784 61.8248 10.5002 61.878C10.022 61.9312 9.5829 61.8608 9.1828 61.6669C8.7813 61.4708 8.44633 61.1696 8.17791 60.7634C7.90948 60.3572 7.7638 59.9309 7.74088 59.4847C7.71796 59.0385 7.82543 58.6069 8.06329 58.19C8.29974 57.771 8.66256 57.3999 9.15174 57.0766ZM9.70194 57.9093C9.35739 58.137 9.09865 58.3859 8.92574 58.656C8.75142 58.9239 8.66546 59.1961 8.66786 59.4726C8.66886 59.7469 8.75439 60.0128 8.92444 60.2701C9.09168 60.5232 9.30269 60.7061 9.55747 60.8189C9.81084 60.9295 10.0957 60.9583 10.4119 60.9051C10.7268 60.8498 11.0565 60.7084 11.401 60.4807C11.7456 60.253 12.005 60.0052 12.1794 59.7373C12.3523 59.4672 12.4375 59.1939 12.4351 58.9174C12.4313 58.6388 12.3458 58.373 12.1785 58.1199C12.0085 57.8625 11.7975 57.6796 11.5455 57.5711C11.2921 57.4605 11.008 57.4328 10.6932 57.4881C10.3769 57.5412 10.0465 57.6816 9.70194 57.9093Z" fill="white"/>
<path d="M12.8329 66.4093L10.4053 63.7534L11.0234 63.1884L12.7803 65.1105L13.898 64.0889L12.2675 62.3051L12.88 61.7453L14.5104 63.5291L15.631 62.5049L13.8638 60.5715L14.4819 60.0065L16.9198 62.6737L12.8329 66.4093Z" fill="white"/>
<path d="M13.981 67.641L16.5592 64.7245C16.7923 64.461 17.0512 64.2816 17.3361 64.1864C17.6174 64.0914 17.9057 64.0809 18.2011 64.1548C18.4928 64.229 18.7714 64.3834 19.0368 64.6181C19.2832 64.8359 19.465 65.0748 19.5821 65.3349C19.6957 65.5952 19.732 65.8621 19.691 66.1355C19.6481 66.4072 19.5178 66.6663 19.3 66.9127L18.5551 66.2542C18.6511 66.1417 18.7116 66.0233 18.7364 65.899C18.7577 65.7749 18.7457 65.6537 18.7005 65.5355C18.6534 65.4156 18.5745 65.3066 18.4637 65.2087C18.2803 65.0466 18.0902 64.9807 17.8934 65.0108C17.6966 65.041 17.5002 65.1651 17.3041 65.383L14.7259 68.2995L13.981 67.641Z" fill="white"/>
</g>
<g id="&#236;&#160;&#132;&#235;&#130;&#168;&#236;&#151;&#172;&#236;&#131;&#129;">
<path id="Vector_2" d="M49.6411 71.221C49.7807 71.6657 49.8389 72.1033 49.8157 72.5336C49.7925 72.964 49.6866 73.3657 49.498 73.7388C49.3111 74.1086 49.0402 74.4283 48.6855 74.698L48.0335 74.1862C48.3473 73.9512 48.5905 73.6824 48.763 73.3799C48.9372 73.0741 49.0392 72.7555 49.0689 72.4241C49.1004 72.0894 49.065 71.7594 48.9628 71.4339L48.7616 70.7928L49.4399 70.5799L49.6411 71.221ZM49.8148 71.2524C49.9045 71.5382 50.0511 71.7924 50.2548 72.015C50.4609 72.2369 50.7136 72.4115 51.0128 72.5386C51.3145 72.665 51.6502 72.7302 52.0199 72.7343L51.7788 73.5182C51.3581 73.5084 50.9705 73.4171 50.6161 73.2445C50.2609 73.0694 49.9575 72.8289 49.7059 72.523C49.4568 72.2164 49.2695 71.863 49.1439 71.463L48.9181 70.7437L49.589 70.5331L49.8148 71.2524ZM53.6719 73.2884L52.8445 73.5481L51.5799 69.5193L52.4073 69.2596L53.6719 73.2884ZM54.0802 71.2892L52.9024 71.6589L52.686 70.9694L53.8637 70.5997L54.0802 71.2892ZM51.5272 74.1254C51.9893 73.9803 52.405 73.9044 52.7741 73.8978C53.1457 73.8903 53.4522 73.9538 53.6936 74.0881C53.9343 74.22 54.0967 74.4202 54.1809 74.6885C54.2652 74.9568 54.2466 75.2151 54.1253 75.4634C54.0047 75.7141 53.7911 75.9422 53.4844 76.1477C53.1777 76.3531 52.792 76.5288 52.3274 76.6746C51.8627 76.8205 51.4421 76.8979 51.0656 76.9069C50.6915 76.9151 50.3809 76.8516 50.1337 76.7163C49.8898 76.5827 49.7257 76.3817 49.6415 76.1134C49.5573 75.845 49.5774 75.5876 49.702 75.3411C49.8283 75.0912 50.0473 74.8628 50.359 74.6558C50.6732 74.448 51.0626 74.2712 51.5272 74.1254ZM51.7319 74.7776C51.4263 74.8735 51.1716 74.9794 50.9678 75.0952C50.7664 75.2103 50.6234 75.333 50.5388 75.4633C50.4558 75.5903 50.435 75.7196 50.4763 75.8513C50.5192 75.988 50.6114 76.086 50.7528 76.1453C50.896 76.2014 51.0818 76.2195 51.3103 76.1996C51.5413 76.1789 51.8125 76.1211 52.1238 76.0261C52.4361 75.9254 52.6917 75.8179 52.8905 75.7036C53.0894 75.5893 53.2291 75.469 53.3095 75.3428C53.3892 75.2141 53.4076 75.0814 53.3647 74.9447C53.3226 74.8105 53.2312 74.715 53.0906 74.6582C52.9524 74.6006 52.7678 74.5821 52.5368 74.6027C52.3058 74.6234 52.0375 74.6817 51.7319 74.7776Z" fill="white"/>
<path id="Vector_3" d="M45.4299 73.2969L43.4326 73.688L43.2968 72.9942L45.294 72.6031L45.4299 73.2969ZM45.8517 75.4513L43.8545 75.8424L43.7201 75.1562L45.7174 74.7651L45.8517 75.4513ZM41.8778 72.2729C42.2203 72.2059 42.5441 72.2473 42.8495 72.3971C43.1568 72.5439 43.4222 72.7878 43.6455 73.1289C43.871 73.4669 44.0317 73.8812 44.1278 74.3719C44.2244 74.8651 44.2323 75.312 44.1515 75.7126C44.0728 76.1102 43.919 76.4361 43.6902 76.6906C43.464 76.9445 43.1796 77.105 42.8371 77.1721C42.4921 77.2396 42.1659 77.2 41.8586 77.0532C41.5507 76.9039 41.2838 76.6589 41.0579 76.3184C40.8346 75.9774 40.6746 75.5602 40.578 75.067C40.4819 74.5763 40.4732 74.1322 40.552 73.7347C40.6327 73.3341 40.7878 73.0078 41.0171 72.7559C41.2459 72.5015 41.5328 72.3405 41.8778 72.2729ZM42.0279 73.0396C41.8383 73.0741 41.6827 73.1736 41.561 73.3381C41.4418 73.502 41.3674 73.7183 41.3377 73.9868C41.3075 74.2528 41.3265 74.5595 41.3945 74.9071C41.4626 75.2547 41.5613 75.5485 41.6905 75.7885C41.8193 76.026 41.9695 76.1969 42.1412 76.3013C42.315 76.4026 42.4964 76.4348 42.6855 76.3977C42.8746 76.3607 43.0293 76.2628 43.1494 76.1039C43.2716 75.942 43.3476 75.7268 43.3772 75.4582C43.4064 75.1872 43.387 74.8778 43.3189 74.5303C43.2504 74.1801 43.1519 73.8876 43.0237 73.6527C42.8949 73.4152 42.7447 73.2443 42.573 73.1399C42.4033 73.0325 42.2217 72.999 42.0279 73.0396ZM47.0521 77.9429L46.2088 78.108L44.8493 71.1657L45.6927 71.0005L47.0521 77.9429Z" fill="white"/>
<path id="Vector_4" d="M38.358 75.4857L37.5043 75.3335L38.2032 71.4148L39.0569 71.5671L38.358 75.4857ZM39.6431 73.9532L38.4356 73.7378L38.5604 73.0379L39.768 73.2533L39.6431 73.9532ZM37.834 78.4238L33.3347 77.6213L33.7983 75.0217L38.2976 75.8241L37.834 78.4238ZM34.2983 77.0908L37.1171 77.5936L37.3407 76.3399L34.5219 75.8372L34.2983 77.0908ZM34.1675 73.9527L33.31 73.7998L33.8134 70.9771L34.6709 71.1301L34.1675 73.9527ZM33.9558 73.538C34.4685 73.6295 34.988 73.6983 35.5141 73.7445C36.0406 73.7882 36.5797 73.8063 37.1312 73.7988L37.1095 74.5211C36.5498 74.5297 36.0005 74.5098 35.4616 74.4613C34.9227 74.4128 34.3789 74.3396 33.8303 74.2418L33.2496 74.1382L33.3751 73.4345L33.9558 73.538Z" fill="white"/>
<path id="Vector_5" d="M30.7886 72.2969L29.1533 71.7679L29.3709 71.0952L31.0062 71.6242L30.7886 72.2969ZM30.3755 74.8811L29.5504 74.6142L31.1386 69.7045L31.9637 69.9714L30.3755 74.8811ZM30.0043 76.6126L25.4254 75.1315L25.6442 74.4551L30.2231 75.9362L30.0043 76.6126ZM26.3504 75.1023L25.5216 74.8342L26.1082 73.0205L26.9371 73.2886L26.3504 75.1023ZM28.2106 70.2272C28.0743 70.6484 27.873 71.0212 27.6066 71.3456C27.3402 71.67 27.0192 71.9261 26.6437 72.1139C26.2715 72.3001 25.8618 72.3988 25.4147 72.4102L25.2037 71.603C25.5875 71.6012 25.9389 71.5301 26.258 71.3898C26.5771 71.2494 26.8447 71.0609 27.0609 70.8242C27.2778 70.5851 27.4356 70.3132 27.5341 70.0084L27.6868 69.5364L28.3633 69.7552L28.2106 70.2272ZM28.3717 70.2876C28.2827 70.5626 28.2569 70.8498 28.2941 71.1493C28.3314 71.4487 28.4353 71.741 28.6058 72.026C28.7764 72.3111 29.0109 72.5635 29.3093 72.7832L28.684 73.3076C28.3358 73.0472 28.067 72.7399 27.8777 72.3858C27.6893 72.0292 27.5801 71.6518 27.5502 71.2535C27.5228 70.8559 27.5724 70.4614 27.699 70.07L27.8541 69.5905L28.5268 69.8081L28.3717 70.2876ZM29.8256 70.5525L26.1907 69.3768L26.4071 68.7078L30.042 69.8836L29.8256 70.5525Z" fill="white"/>
</g>
<circle id="Ellipse 112" cx="22" cy="70" r="2" fill="white"/>
<circle id="Ellipse 113" cx="58" cy="70" r="2" fill="white"/>
<path id="Subtract" fill-rule="evenodd" clip-rule="evenodd" d="M35.1435 61.6554C36.1772 61.5146 37.4589 61.294 38.8695 60.9484C40.2802 61.294 41.5619 61.5146 42.5956 61.6554C43.39 61.7636 44.0429 61.8253 44.5015 61.8601C44.7309 61.8775 44.9121 61.8882 45.0385 61.8946C45.1017 61.8978 45.1512 61.9 45.1863 61.9013L45.2279 61.9029L45.2403 61.9033L45.2445 61.9034L45.246 61.9034C45.2466 61.9035 45.2472 61.9035 45.2898 60.4041C45.3324 58.9047 45.3329 58.9047 45.3333 58.9047L45.3292 58.9046L45.3041 58.9036C45.2802 58.9027 45.2421 58.9011 45.1907 58.8985C45.0925 58.8935 44.9457 58.8849 44.7559 58.8707C48.3587 57.1306 51.9167 54.3524 53.7665 49.9131C56.0952 44.3242 56.6493 37.5555 56.6493 32.2887C56.6493 30.3484 56.5739 28.59 56.4781 27.1392C56.8426 27.1689 57.1677 27.1968 57.4516 27.222C57.9127 27.263 58.2651 27.297 58.5009 27.3207C58.6189 27.3325 58.7076 27.3418 58.7663 27.348L58.8315 27.355L58.847 27.3567L58.8504 27.357L58.851 27.3571L58.8511 27.3571C58.851 27.3571 58.8509 27.3571 59.0166 25.8663C59.1822 24.3754 59.182 24.3754 59.1819 24.3754L59.1814 24.3753L59.1798 24.3752L59.1745 24.3746L59.1551 24.3725L59.082 24.3646C59.018 24.3579 58.9239 24.3481 58.8005 24.3357C58.5538 24.3109 58.1901 24.2758 57.7172 24.2338C57.2999 24.1967 56.7976 24.1542 56.2156 24.1088C56.2002 23.9681 56.1857 23.8397 56.1722 23.7242C56.1454 23.495 56.123 23.3166 56.107 23.1942C56.099 23.133 56.0927 23.0857 56.0882 23.053L56.083 23.015L56.0815 23.0043L56.081 23.0011L56.0808 23C56.0808 22.9996 56.0807 22.9993 54.5958 23.2114C53.1109 23.4236 53.1109 23.4234 53.1108 23.4232L53.111 23.4242L53.1119 23.4304L53.1159 23.4594C53.1195 23.486 53.125 23.5271 53.1322 23.582C53.1423 23.66 53.1558 23.7658 53.1717 23.8978C49.6867 23.6847 44.8471 23.4807 39.0909 23.4807C33.0849 23.4807 28.0768 23.7028 24.564 23.9256C24.5814 23.7806 24.596 23.6654 24.6069 23.582C24.6141 23.5271 24.6196 23.486 24.6232 23.4594L24.6272 23.4304L24.6281 23.4242L24.6282 23.4232C24.6282 23.4234 24.6282 23.4236 23.1433 23.2114C21.6583 22.9993 21.6583 22.9996 21.6582 23L21.6581 23.0011L21.6576 23.0043L21.6561 23.015L21.6509 23.053C21.6464 23.0857 21.6401 23.133 21.6321 23.1942C21.6161 23.3166 21.5937 23.495 21.5669 23.7242C21.5523 23.8493 21.5364 23.9896 21.5196 24.1443C21.1235 24.1764 20.7711 24.2065 20.4647 24.2338C19.9918 24.2758 19.6281 24.3109 19.3814 24.3357C19.258 24.3481 19.1638 24.3579 19.0999 24.3646L19.0268 24.3725L19.0074 24.3746L19.0021 24.3752L19.0005 24.3753L19 24.3754C18.9998 24.3754 18.9997 24.3754 19.1653 25.8663C19.331 27.3571 19.3309 27.3571 19.3308 27.3571L19.3309 27.3571L19.3315 27.357L19.3349 27.3567L19.3503 27.355L19.4156 27.348C19.4743 27.3418 19.563 27.3325 19.6809 27.3207C19.9168 27.297 20.2691 27.263 20.7303 27.222C20.893 27.2075 21.0692 27.1922 21.2585 27.1762C21.1639 28.6198 21.0898 30.3648 21.0898 32.2887C21.0898 37.5555 21.6439 44.3242 23.9726 49.9131C25.8223 54.3524 29.3803 57.1306 32.9832 58.8707C32.7934 58.8849 32.6466 58.8935 32.5484 58.8985C32.4969 58.9011 32.4589 58.9027 32.435 58.9036L32.4099 58.9046L32.4058 58.9047C32.4062 58.9047 32.4066 58.9047 32.4493 60.4041C32.4919 61.9035 32.4925 61.9035 32.4931 61.9034L32.4946 61.9034L32.4987 61.9033L32.5112 61.9029L32.5528 61.9013C32.5879 61.9 32.6374 61.8978 32.7006 61.8946C32.827 61.8882 33.0082 61.8775 33.2376 61.8601C33.6962 61.8253 34.3491 61.7636 35.1435 61.6554ZM24.281 26.9502C24.1767 28.4142 24.0898 30.2476 24.0898 32.2887C24.0898 37.4274 24.6426 43.7211 26.7418 48.7592C28.7068 53.4751 33.1815 56.0432 37.4473 57.4286C37.9294 57.5852 38.4051 57.7253 38.8695 57.8508C39.334 57.7253 39.8097 57.5852 40.2918 57.4286C44.5576 56.0432 49.0323 53.4751 50.9972 48.7592C53.0965 43.7211 53.6493 37.4274 53.6493 32.2887C53.6493 30.2342 53.5612 28.3901 53.456 26.9214L53.442 26.9205C49.9815 26.7007 45.0322 26.4807 39.0909 26.4807C33.1497 26.4807 28.2004 26.7007 24.7399 26.9205C24.5839 26.9304 24.4309 26.9403 24.281 26.9502ZM39.0923 29.4091H36.8783V30.2947H29.3509V33.837H30.6793V35.1654H29.3509V37.8221H30.6793V39.5933H29.3509V43.1356H30.6793V44.464L29.3509 45.7924V50.6631L30.6793 49.3347V52.4342H39.0923H47.5053V49.3347L48.8337 50.6631V45.7924L47.5053 44.464V43.1356H48.8337V39.5933H47.5053V37.8221H48.8337V35.1654H47.5053V33.837H48.8337V30.2947H41.3063V29.4091H39.0923ZM36.9947 38.7738C36.6283 39.6023 36.1111 40.3317 35.4431 40.9619C34.741 41.6241 33.8996 42.1237 32.9191 42.4608L31.875 40.8716C32.7284 40.5887 33.4608 40.1824 34.0721 39.6527C34.6895 39.123 35.1526 38.524 35.4613 37.8558C35.776 37.1817 35.9334 36.4804 35.9334 35.752V35.2825H32.4016V33.6753H41.4353V35.2825H37.9762V35.752C37.9762 36.4382 38.1305 37.1004 38.4392 37.7385C38.7479 38.3705 39.2049 38.9364 39.8102 39.436C40.4154 39.9296 41.1418 40.3058 41.9891 40.5646L40.9541 42.1448C39.9857 41.8318 39.1534 41.3592 38.4574 40.7272C37.838 40.1595 37.3505 39.5084 36.9947 38.7738ZM43.3873 44.2938H45.412V32.4473H43.3873V44.2938ZM34.5533 48.4473H45.875V46.8039H36.5871V43.2012H34.5533V46.8039V47.5985V48.4473Z" fill="#107F32"/>
</g>
</g>
</svg>
