<svg width="73" height="72" viewBox="0 0 73 72" fill="none" xmlns="http://www.w3.org/2000/svg">
<path fill-rule="evenodd" clip-rule="evenodd" d="M36.9912 7.08085C36.7396 6.97305 36.4549 6.97305 36.2034 7.08085L8.22078 19.0729C8.0445 19.1484 7.89793 19.2709 7.79311 19.4219C7.94574 19.3273 8.12232 19.2746 8.30348 19.2713C7.9297 19.2782 7.57551 19.4954 7.41093 19.8578L1.17957 33.5753C0.721665 34.5834 1.16981 35.7716 2.17934 36.2262L28.3065 47.9908C29.3497 48.4605 30.5736 47.961 30.9903 46.8955L35.5973 35.1148V62.4833L9.61468 51.341V39.5743L7.61468 38.6738V52.0002C7.61468 52.4001 7.85298 52.7616 8.22055 52.9192L36.2031 64.9193C36.4548 65.0272 36.7397 65.0272 36.9914 64.9193L64.974 52.9192C65.3416 52.7616 65.5798 52.4001 65.5798 52.0002V38.5841L70.8164 36.2262C71.8259 35.7716 72.274 34.5834 71.8161 33.5753L65.5848 19.8578C65.5782 19.8432 65.5713 19.829 65.5641 19.8149C65.5053 19.488 65.2862 19.2068 64.9738 19.0729L36.9912 7.08085ZM64.6679 19.2711C64.5362 19.2719 64.4024 19.2988 64.2742 19.3547L37.8132 30.8962C36.8282 31.3259 36.3587 32.4571 36.7501 33.4579L37.5973 35.6242V62.4833L63.5799 51.341V39.4846L44.6892 47.9908C43.646 48.4605 42.4221 47.961 42.0054 46.8955L36.7505 33.4579C36.3591 32.4571 36.8285 31.3259 37.8135 30.8962L64.2745 19.3547C64.4027 19.2988 64.5363 19.2719 64.6679 19.2711ZM36.5973 9.08796L62.0412 19.9921L36.5973 30.8961L11.1534 19.9921L36.5973 9.08796ZM8.82446 21.5818L3.0005 34.4025L29.1277 46.1671L34.3826 32.7295L8.82446 21.5818ZM69.9952 34.4025L64.1712 21.5818L38.6131 32.7295L43.868 46.1671L69.9952 34.4025Z" fill="#6B6B6B"/>
</svg>
