<svg width="24" height="24" viewBox="0 0 24 24" fill="none" xmlns="http://www.w3.org/2000/svg">
<g id="icons">
<path id="Subtract" fill-rule="evenodd" clip-rule="evenodd" d="M12 22C17.5228 22 22 17.5228 22 12C22 6.47715 17.5228 2 12 2C6.47715 2 2 6.47715 2 12C2 17.5228 6.47715 22 12 22ZM8 11.5C8.82843 11.5 9.5 10.8284 9.5 10C9.5 9.17157 8.82843 8.5 8 8.5C7.17157 8.5 6.5 9.17157 6.5 10C6.5 10.8284 7.17157 11.5 8 11.5ZM9.01264 12H6.98749C6.4812 12 5.51114 12.6095 5.21529 13.25C5.10187 13.4956 5.03932 13.7721 5.00482 14.0024C4.96392 14.2756 5.18897 14.5 5.46853 14.5H8.90967C8.94276 14.388 8.98348 14.2748 9.03366 14.1662C9.20288 13.7998 9.55198 13.4622 9.91017 13.2193C10.1135 13.0814 10.3355 12.9635 10.5471 12.8881C10.5936 12.9432 10.6363 12.9993 10.6745 13.0563C10.1528 13.2212 9.45766 13.7252 9.21523 14.25C9.17787 14.3309 9.14603 14.4152 9.11889 14.5H9.11894C9.0637 14.6727 9.02795 14.848 9.00482 15.0024C8.96392 15.2756 9.18897 15.5 9.46853 15.5H14.5314C14.8111 15.5 15.0362 15.2754 14.9952 15.0021C14.972 14.8477 14.9362 14.6726 14.8809 14.5H14.8808C14.8537 14.4152 14.8218 14.3309 14.7844 14.25C14.5418 13.7251 13.8468 13.221 13.3252 13.0562L13.3252 13.0561C13.2104 13.0199 13.104 13 13.0126 13H10.9875C10.8961 13 10.7895 13.0199 10.6745 13.0562C10.2961 12.4919 9.46746 12 9.01264 12ZM18.5314 14.5H15.0901C15.057 14.3879 15.0162 14.2748 14.966 14.1661C14.7967 13.7999 14.4477 13.4622 14.0896 13.2193C13.8863 13.0814 13.6643 12.9634 13.4527 12.8881C13.8671 12.3976 14.5785 12 14.9875 12H17.0126C17.5189 12 18.4885 12.6096 18.7845 13.25C18.8979 13.4954 18.9605 13.7718 18.9952 14.0021C19.0362 14.2754 18.8111 14.5 18.5314 14.5ZM16 11.5C16.8284 11.5 17.5 10.8284 17.5 10C17.5 9.17157 16.8284 8.5 16 8.5C15.1716 8.5 14.5 9.17157 14.5 10C14.5 10.8284 15.1716 11.5 16 11.5ZM13.5 11C13.5 11.8284 12.8284 12.5 12 12.5C11.1716 12.5 10.5 11.8284 10.5 11C10.5 10.1716 11.1716 9.5 12 9.5C12.8284 9.5 13.5 10.1716 13.5 11Z" fill="#B8B8B8"/>
</g>
</svg>
