<svg width="80" height="80" viewBox="0 0 80 80" fill="none" xmlns="http://www.w3.org/2000/svg">
<g id="Frame 382">
<rect width="80" height="80" fill="white"/>
<g id="Group 7156">
<path id="Union" fill-rule="evenodd" clip-rule="evenodd" d="M59.8323 17.2344H20.9346V22.0048H33.5947L24.0537 30.4449H39.466L35.9918 33.9191H20.2041H16.7041V37.4191V56.868H23.7041V40.9191H56.7027V56.868H63.7027V37.4191V33.9191H60.2027H47.6199L56.7131 26.2249H40.5669L45.1539 22.0048H59.8323V17.2344ZM40.2032 41.0875L40.2041 41.0872V41.0877L53.9558 45.3049H53.9632V45.3072V53.378V53.3803H53.9558L40.2041 57.5975V57.5981L40.2032 57.5978L40.2022 57.5981V57.5975L26.4506 53.3803H26.4432V53.378V45.3072V45.3049H26.4506L40.2022 41.0877V41.0872L40.2032 41.0875ZM40.2032 45.491L33.7824 47.3255V51.3597L40.2032 53.1943L46.624 51.3597L46.624 47.3255L40.2032 45.491Z" fill="#7C3F78"/>
<g id="Vector">
<path d="M8.74449 56.9243L8.22316 55.8789L10.4604 54.7632L10.4274 54.697L7.27607 53.9797L6.647 52.7182L9.84528 53.4774L11.6826 50.181L12.3099 51.439L10.9193 53.8773L11.8264 54.082L13.2691 53.3626L13.7905 54.408L8.74449 56.9243Z" fill="#9D9763"/>
<path d="M4.98513 47.0737L8.4935 46.0162C8.88125 45.8993 9.25111 45.8895 9.60308 45.9867C9.95431 46.0815 10.2641 46.2728 10.5326 46.5606C10.7985 46.8492 10.9982 47.2147 11.1315 47.6572C11.2657 48.1021 11.3013 48.517 11.2384 48.902C11.173 49.2878 11.0205 49.6185 10.7809 49.894C10.5406 50.1671 10.2265 50.3621 9.83878 50.479L6.33041 51.5366L5.99324 50.4181L9.40841 49.3886C9.61222 49.3272 9.78229 49.2257 9.91862 49.0843C10.0525 48.9436 10.1411 48.7746 10.1846 48.5771C10.2256 48.3803 10.2132 48.1726 10.1473 47.9539C10.0806 47.7327 9.97577 47.5514 9.83286 47.4101C9.68746 47.2696 9.52049 47.1789 9.33195 47.1381C9.14019 47.0956 8.94239 47.1051 8.73858 47.1665L5.32341 48.196L4.98513 47.0737Z" fill="#9D9763"/>
<path d="M4.61113 44.0243L8.24849 42.0685L8.24164 42.0027L4.28021 40.8406L4.13086 39.4036L9.73924 38.8207L9.85679 39.9517L6.18113 40.3337L6.18596 40.3802L9.98668 41.465L10.0676 42.2435L6.56307 44.0838L6.5679 44.1302L10.2513 43.7474L10.3685 44.8745L4.76008 45.4574L4.61113 44.0243Z" fill="#9D9763"/>
<path d="M4.34601 38.2484L4.52389 36.0515C4.55783 35.6323 4.66727 35.2779 4.85222 34.9881C5.03478 34.6955 5.27606 34.482 5.57606 34.3474C5.87607 34.2128 6.21237 34.1606 6.58498 34.1908C6.96018 34.2212 7.28349 34.3294 7.55492 34.5154C7.82398 34.6987 8.02625 34.9508 8.16175 35.2717C8.29487 35.5898 8.34425 35.9611 8.30989 36.3854L8.19549 37.7982L7.2562 37.7222L7.35583 36.4918C7.37406 36.2667 7.35054 36.0746 7.28527 35.9157C7.21763 35.7539 7.11569 35.6298 6.97945 35.5432C6.84321 35.4566 6.67935 35.4056 6.48787 35.3901C6.29639 35.3746 6.12775 35.3987 5.98194 35.4624C5.83355 35.526 5.71555 35.6323 5.62794 35.7815C5.53795 35.9279 5.48374 36.1149 5.4653 36.3426L5.39899 37.1616L10.0605 37.539L9.9662 38.7034L4.34601 38.2484Z" fill="#9D9763"/>
<path d="M10.453 34.0929L5.47338 30.8084L5.84613 29.3522L11.7924 28.8605L11.4805 30.079L6.89913 30.3734L6.88754 30.4187L10.763 32.8819L10.453 34.0929ZM9.34749 29.4768L10.234 29.7037L9.48755 32.6198L8.60103 32.3928L9.34749 29.4768Z" fill="#9D9763"/>
<path d="M8.1937 23.4787L10.4782 19.4649L11.3175 19.9426L10.4623 21.4452L14.5234 23.7567L13.9513 24.7618L9.89017 22.4504L9.033 23.9564L8.1937 23.4787Z" fill="#9D9763"/>
<path d="M11.4242 18.3038L13.797 15.3549L14.5494 15.9603L12.9089 17.999L13.9769 18.8583L15.4928 16.9743L16.2422 17.5772L14.7263 19.4613L15.7972 20.323L17.4425 18.2781L18.195 18.8835L15.8173 21.8385L11.4242 18.3038Z" fill="#9D9763"/>
<path d="M19.2118 13.067C19.0522 12.931 18.8807 12.844 18.6971 12.8059C18.5138 12.7642 18.3295 12.772 18.1442 12.8295C17.9589 12.8869 17.7858 12.9873 17.625 13.1307C17.4061 13.326 17.2635 13.5523 17.1973 13.8096C17.1314 14.0632 17.1461 14.3353 17.2417 14.6257C17.3355 14.9143 17.512 15.2038 17.7712 15.4944C18.0373 15.7928 18.3084 16.005 18.5843 16.1311C18.8585 16.2553 19.1254 16.299 19.3849 16.2624C19.6446 16.2221 19.881 16.1069 20.0942 15.9168C20.255 15.7734 20.3734 15.6156 20.4494 15.4434C20.5274 15.2695 20.5615 15.0913 20.5517 14.9087C20.5402 14.7242 20.4814 14.5452 20.3755 14.3719L21.2697 13.5901C21.4717 13.8829 21.5954 14.2127 21.6406 14.5793C21.6878 14.9442 21.641 15.313 21.5002 15.6855C21.3576 16.0561 21.1149 16.3944 20.772 16.7002C20.3961 17.0354 19.9839 17.25 19.5354 17.3439C19.0852 17.4358 18.6307 17.3942 18.1719 17.219C17.7132 17.0402 17.2852 16.728 16.8878 16.2824C16.4869 15.8329 16.2256 15.3702 16.1038 14.8944C15.984 14.4169 15.9954 13.9615 16.1378 13.5284C16.2822 13.0935 16.5413 12.7093 16.9152 12.3759C17.2388 12.0873 17.5849 11.8864 17.9536 11.7733C18.3223 11.6601 18.6908 11.6463 19.0592 11.7317C19.4278 11.8134 19.7741 11.995 20.0981 12.2765L19.2118 13.067Z" fill="#9D9763"/>
<path d="M19.9321 10.1582L20.9258 9.54401L22.1543 11.5314L24.2344 10.2456L23.0059 8.25821L23.9996 7.64397L26.9644 12.4402L25.9707 13.0545L24.7401 11.0638L22.66 12.3496L23.8905 14.3403L22.8968 14.9545L19.9321 10.1582Z" fill="#9D9763"/>
<path d="M31.8146 10.6079L30.874 10.9825L27.2476 8.57051L27.2078 8.58636L28.5333 11.9147L27.448 12.3469L25.3618 7.10841L26.3169 6.72806L29.9237 9.14367L29.9708 9.12494L28.6467 5.80024L29.7284 5.36947L31.8146 10.6079Z" fill="#9D9763"/>
<path d="M33.6501 10.2989L32.5163 10.5802L31.1588 5.10742L32.2926 4.82617L33.6501 10.2989Z" fill="#9D9763"/>
<path d="M38.6089 5.90967C38.5583 5.70624 38.4694 5.53565 38.3423 5.3979C38.2175 5.25729 38.063 5.15643 37.8789 5.09532C37.6948 5.03421 37.4956 5.0152 37.2814 5.03827C36.9897 5.06969 36.7421 5.17077 36.5385 5.34152C36.3373 5.50942 36.191 5.73928 36.0997 6.03111C36.0082 6.32035 35.9832 6.65856 36.0249 7.04572C36.0678 7.44321 36.1647 7.77351 36.3158 8.03662C36.4665 8.29716 36.6581 8.48802 36.8905 8.6092C37.1252 8.72753 37.3845 8.77141 37.6684 8.74083C37.8826 8.71775 38.0708 8.65833 38.2328 8.56254C38.3974 8.46648 38.5288 8.34136 38.6271 8.18716C38.7251 8.03039 38.7814 7.85068 38.7962 7.64805L39.9783 7.53247C39.9722 7.88823 39.8809 8.22836 39.7044 8.55287C39.5304 8.8771 39.2778 9.14975 38.9465 9.37082C38.6149 9.5893 38.2207 9.72315 37.7638 9.77236C37.2631 9.82629 36.8031 9.76096 36.3837 9.57636C35.964 9.38917 35.6186 9.09086 35.3473 8.68142C35.0784 8.26912 34.9119 7.76615 34.848 7.17249C34.7835 6.57368 34.8401 6.04536 35.018 5.58755C35.1984 5.12946 35.4726 4.76572 35.8404 4.49632C36.2109 4.22665 36.6452 4.06498 37.1433 4.01133C37.5744 3.9649 37.9727 4.00294 38.3384 4.12543C38.7041 4.24793 39.0119 4.45108 39.2618 4.73488C39.514 5.01582 39.69 5.36502 39.7898 5.78248L38.6089 5.90967Z" fill="#9D9763"/>
<path d="M40.1778 9.56035L42.4999 4.06561L43.9996 4.16678L45.5666 9.9239L44.3116 9.83924L43.1874 5.38824L43.1407 5.38509L41.4249 9.64449L40.1778 9.56035ZM44.5152 7.63222L44.4536 8.54525L41.4503 8.34263L41.5119 7.42961L44.5152 7.63222Z" fill="#9D9763"/>
<path d="M47.03 4.6494L48.1681 4.91285L47.1144 9.46534L49.4779 10.0124L49.2601 10.9533L45.7585 10.1428L47.03 4.6494Z" fill="#9D9763"/>
<path d="M55.2918 7.3506L56.3255 7.89482L55.2371 9.96224L57.401 11.1015L58.4894 9.03405L59.5231 9.57827L56.8964 14.5676L55.8627 14.0234L56.9529 11.9526L54.789 10.8133L53.6988 12.8842L52.6651 12.34L55.2918 7.3506Z" fill="#9D9763"/>
<path d="M58.2414 15.721L57.2909 15.0418L60.5692 10.4541L61.5197 11.1333L58.2414 15.721Z" fill="#9D9763"/>
<path d="M64.875 16.52C64.9628 16.3563 65.0102 16.1899 65.0171 16.0208C65.0258 15.8498 64.9952 15.6844 64.9252 15.5245C64.8589 15.3645 64.7505 15.2129 64.6002 15.0696C64.3896 14.8691 64.1543 14.7453 63.8943 14.6984C63.6361 14.6533 63.3652 14.6892 63.0816 14.8063C62.8017 14.9232 62.5274 15.1227 62.2588 15.4046C61.9885 15.6885 61.7998 15.9731 61.6929 16.2584C61.5896 16.5437 61.5669 16.816 61.6246 17.0754C61.686 17.3346 61.8247 17.5672 62.0409 17.7731C62.2364 17.9593 62.4386 18.0839 62.6476 18.1468C62.8585 18.2114 63.0624 18.2138 63.2593 18.154C63.4598 18.094 63.6433 17.9766 63.8098 17.8018L63.9605 17.9937L62.9004 16.9838L63.5154 16.3382L65.2184 17.9604L64.7296 18.4736C64.3947 18.8251 64.0277 19.0598 63.6284 19.1779C63.2309 19.294 62.8325 19.2945 62.4331 19.1793C62.0355 19.0659 61.6657 18.8463 61.3236 18.5204C60.9439 18.1587 60.689 17.7545 60.5588 17.3078C60.4323 16.861 60.4386 16.4027 60.5778 15.9329C60.7188 15.4649 60.9917 15.0186 61.3963 14.5937C61.8064 14.1633 62.2445 13.869 62.7108 13.7108C63.1807 13.5525 63.6391 13.5267 64.0861 13.6333C64.5348 13.7381 64.9396 13.9624 65.3005 14.3062C65.605 14.5963 65.8277 14.9196 65.9686 15.2761C66.1094 15.6325 66.1603 15.9894 66.1212 16.3465C66.084 16.7055 65.9562 17.0373 65.7377 17.3419L64.875 16.52Z" fill="#9D9763"/>
<path d="M67.9794 17.3644L68.6678 18.3082L66.7801 19.685L68.2211 21.6608L70.1088 20.284L70.7972 21.2279L66.2416 24.5505L65.5532 23.6066L67.444 22.2276L66.003 20.2518L64.1122 21.6308L63.4238 20.687L67.9794 17.3644Z" fill="#9D9763"/>
<path d="M72.5173 29.0879C72.6525 29.0198 72.7556 28.9292 72.8265 28.8162C72.8983 28.7056 72.9348 28.575 72.9359 28.4246C72.9371 28.2742 72.903 28.108 72.8338 27.926C72.7665 27.7489 72.6824 27.6045 72.5817 27.4928C72.4818 27.3836 72.3729 27.3125 72.2548 27.2796C72.1392 27.2458 72.0232 27.2511 71.9067 27.2954C71.7286 27.3603 71.618 27.4857 71.5748 27.6715C71.5325 27.8598 71.5288 28.0986 71.5639 28.388L71.6309 28.9041C71.7094 29.4464 71.6757 29.9022 71.53 30.2714C71.3877 30.6421 71.1059 30.909 70.6846 31.0719C70.3667 31.1928 70.0579 31.2171 69.7583 31.145C69.4587 31.0728 69.1865 30.9083 68.9416 30.6514C68.6968 30.3946 68.4936 30.0538 68.3322 29.6292C68.1707 29.2045 68.0956 28.8096 68.1067 28.4443C68.1187 28.0814 68.2194 27.7654 68.4086 27.4963C68.6004 27.2262 68.8796 27.0145 69.2462 26.8612L69.6503 27.9241C69.4835 28.0041 69.3578 28.1117 69.273 28.2467C69.1882 28.3816 69.1446 28.5371 69.142 28.713C69.1395 28.889 69.1751 29.074 69.2489 29.2681C69.3209 29.4574 69.412 29.613 69.5222 29.735C69.6325 29.8569 69.7521 29.9378 69.8811 29.9776C70.0125 30.0165 70.1426 30.0115 70.2712 29.9626C70.3877 29.9184 70.473 29.847 70.5273 29.7486C70.5839 29.6493 70.6153 29.5235 70.6213 29.3713C70.6306 29.2205 70.622 29.0336 70.5955 28.8104L70.5138 28.179C70.4525 27.6746 70.4913 27.2544 70.6302 26.9183C70.7724 26.5837 71.0315 26.3449 71.4077 26.202C71.7207 26.0829 72.0296 26.0627 72.3344 26.1412C72.6402 26.2222 72.917 26.3877 73.1648 26.6379C73.4136 26.8905 73.6104 27.2073 73.7552 27.5882C73.901 27.9716 73.963 28.3355 73.9411 28.6799C73.9217 29.0233 73.8228 29.322 73.6444 29.5759C73.4684 29.8289 73.226 30.0168 72.9173 30.1398L72.5173 29.0879Z" fill="#9D9763"/>
<path d="M73.5933 35.3372C73.7917 35.2693 73.954 35.1661 74.0803 35.0276C74.2096 34.8911 74.2968 34.7285 74.3418 34.5398C74.3868 34.3511 74.3886 34.151 74.3472 33.9396C74.2908 33.6517 74.1688 33.4137 73.9811 33.2256C73.7965 33.0396 73.5549 32.9136 73.2563 32.8478C72.9603 32.7815 72.6212 32.7858 72.239 32.8607C71.8467 32.9375 71.526 33.0626 71.2768 33.2357C71.0303 33.4084 70.8566 33.6157 70.7559 33.8576C70.6582 34.1016 70.6368 34.3637 70.6917 34.644C70.7332 34.8554 70.8086 35.0377 70.9179 35.1909C71.0278 35.3466 71.1638 35.4668 71.3259 35.5514C71.4905 35.6356 71.6744 35.6762 71.8775 35.6735L72.0945 36.8412C71.7395 36.8658 71.3928 36.8041 71.0543 36.6562C70.7163 36.5108 70.4229 36.2826 70.1741 35.9715C69.9279 35.66 69.7606 35.2788 69.6722 34.8279C69.5754 34.3336 69.6009 33.8697 69.7487 33.436C69.899 33.0017 70.1665 32.6319 70.5511 32.3264C70.9387 32.0229 71.4254 31.8138 72.0114 31.699C72.6024 31.5831 73.1337 31.5941 73.6051 31.7319C74.077 31.8722 74.463 32.114 74.7631 32.4573C75.0636 32.8032 75.2621 33.2219 75.3584 33.7136C75.4418 34.1391 75.4382 34.5392 75.3477 34.9141C75.2571 35.289 75.0812 35.6131 74.82 35.8865C74.5618 36.162 74.229 36.3674 73.8217 36.5028L73.5933 35.3372Z" fill="#9D9763"/>
<path d="M75.7412 37.429L75.7632 38.597L73.4272 38.6411L73.4733 41.0861L75.8093 41.0421L75.8313 42.2101L70.1937 42.3163L70.1717 41.1483L72.5116 41.1042L72.4656 38.6592L70.1256 38.7033L70.1036 37.5353L75.7412 37.429Z" fill="#9D9763"/>
<path d="M71.9923 48.3159C71.4029 48.2204 70.9099 48.0248 70.5134 47.7291C70.119 47.4363 69.8397 47.0742 69.6756 46.6426C69.5136 46.214 69.4729 45.7511 69.5535 45.2539C69.6341 44.7568 69.8191 44.3292 70.1086 43.9711C70.4002 43.616 70.7808 43.3607 71.2504 43.2054C71.7196 43.0527 72.2476 43.0238 72.8345 43.1189C73.429 43.2153 73.9235 43.4098 74.3178 43.7025C74.7118 43.9978 74.9898 44.3598 75.1518 44.7884C75.3133 45.2196 75.3538 45.6837 75.2732 46.1809C75.1927 46.678 75.0079 47.1044 74.7188 47.4599C74.4293 47.818 74.0513 48.0736 73.5846 48.2268C73.1176 48.3825 72.5868 48.4122 71.9923 48.3159ZM72.1816 47.1473C72.5737 47.2109 72.9164 47.2059 73.2097 47.1325C73.5026 47.0616 73.737 46.93 73.9128 46.7375C74.0908 46.5481 74.2034 46.3073 74.2508 46.0152C74.2977 45.7256 74.2668 45.4615 74.1582 45.223C74.0517 44.9875 73.871 44.7886 73.6159 44.6263C73.3608 44.4639 73.0372 44.351 72.6451 44.2875C72.253 44.2239 71.9103 44.2289 71.617 44.3023C71.3237 44.3758 71.0881 44.5072 70.9101 44.6966C70.7343 44.8891 70.6229 45.1301 70.576 45.4196C70.5286 45.7118 70.5582 45.9756 70.6647 46.2111C70.7733 46.4497 70.9554 46.6488 71.2109 46.8085C71.466 46.9709 71.7896 47.0838 72.1816 47.1473Z" fill="#9D9763"/>
<path d="M69.8669 54.0229C69.305 53.8209 68.8563 53.5383 68.5207 53.1749C68.1866 52.8149 67.9785 52.4076 67.8963 51.9533C67.8156 51.5022 67.8605 51.0397 68.0308 50.5658C68.2012 50.0918 68.4614 49.7054 68.8116 49.4064C69.1634 49.1107 69.5844 48.9296 70.0745 48.863C70.5638 48.7989 71.0881 48.8673 71.6476 49.0684C72.2144 49.2721 72.6648 49.554 72.9988 49.914C73.332 50.2765 73.5389 50.6833 73.6196 51.1344C73.6993 51.5878 73.654 52.0516 73.4837 52.5255C73.3134 52.9995 73.0535 53.3847 72.7042 53.6812C72.354 53.9802 71.9355 54.1622 71.4487 54.2272C70.961 54.2947 70.4337 54.2266 69.8669 54.0229ZM70.2673 52.9089C70.6411 53.0432 70.9789 53.1012 71.2807 53.0827C71.5816 53.0667 71.8361 52.9803 72.0443 52.8234C72.2539 52.6698 72.4088 52.4537 72.5089 52.1752C72.6081 51.8991 72.6262 51.6339 72.5632 51.3795C72.5017 51.1285 72.3604 50.8998 72.1394 50.6934C71.9184 50.4871 71.621 50.3168 71.2472 50.1824C70.8734 50.0481 70.5356 49.9901 70.2338 50.0086C69.932 50.027 69.6763 50.113 69.4666 50.2666C69.2585 50.4235 69.1048 50.64 69.0056 50.9161C68.9055 51.1946 68.8862 51.4594 68.9477 51.7105C69.0107 51.9648 69.1532 52.194 69.3751 52.3979C69.5961 52.6042 69.8935 52.7745 70.2673 52.9089Z" fill="#9D9763"/>
<path d="M71.7763 56.1587L71.2061 57.1783L67.1278 54.8972L65.9435 57.0145L65.1007 56.543L66.8552 53.4062L71.7763 56.1587Z" fill="#9D9763"/>
<path d="M60.3038 68.8035L63.7935 65.911L64.3005 66.5226L60.8107 69.4152L60.3038 68.8035ZM57.7882 67.5809L62.777 63.4458L63.2864 64.0604L58.2976 68.1955L57.7882 67.5809ZM60.1481 69.2259C59.888 68.9121 59.6652 68.623 59.4798 68.3586C59.2924 68.0959 59.1039 67.775 58.9145 67.3959L59.6994 66.7807C59.8739 67.1418 60.0498 67.4496 60.2269 67.704C60.4057 67.9604 60.6184 68.2393 60.8649 68.5408L61.2724 69.0325L60.5109 69.6637L60.1481 69.2259ZM56.2622 64.5011L60.0577 61.355L61.7102 63.3488L57.9147 66.4948L56.2622 64.5011ZM59.8116 62.5959L57.5331 64.4845L58.1842 65.27L60.4627 63.3814L59.8116 62.5959Z" fill="#9D9763"/>
<path d="M54.9815 71.4033L58.472 69.549L58.8465 70.254L55.356 72.1083L54.9815 71.4033ZM57.1321 66.645C56.3962 67.036 55.7162 67.4105 55.0921 67.7685C54.468 68.1265 53.898 68.4866 53.382 68.8489L53.0082 68.245C53.5209 67.8433 54.0765 67.4614 54.6749 67.0994C55.2746 66.7397 55.9343 66.3657 56.654 65.9775L57.1321 66.645ZM55.4702 67.2766L56.3196 66.8254L58.0022 69.9926L57.1528 70.4438L55.4702 67.2766ZM53.9399 68.0896L54.7824 67.642L56.465 70.8092L55.6224 71.2568L53.9399 68.0896ZM50.9693 67.1543L51.8497 66.6866L55.1783 72.9523L54.2979 73.42L50.9693 67.1543ZM51.7197 70.8079L52.8408 70.2123L53.2208 70.9276L52.0997 71.5232L51.7197 70.8079Z" fill="#9D9763"/>
<path d="M48.2393 70.6837C47.741 70.8295 47.2966 70.9054 46.9062 70.9114C46.5132 70.9181 46.1899 70.8531 45.9362 70.7163C45.6808 70.5828 45.5133 70.3802 45.4339 70.1086C45.3567 69.8445 45.3896 69.5874 45.5328 69.3372C45.6736 69.0878 45.9121 68.8584 46.2485 68.6491C46.5824 68.4406 46.996 68.2641 47.4894 68.1198C47.9777 67.977 48.4187 67.9034 48.8124 67.8992C49.2061 67.8949 49.5306 67.9596 49.7861 68.0932C50.0415 68.2267 50.2079 68.4255 50.2851 68.6897C50.3638 68.9587 50.3332 69.2193 50.1932 69.4712C50.0532 69.7231 49.8159 69.9521 49.4813 70.1582C49.1441 70.365 48.7302 70.5402 48.2393 70.6837ZM48.0327 69.9773C48.3466 69.8855 48.6067 69.7851 48.8128 69.6761C49.0172 69.5704 49.1652 69.4568 49.2568 69.3353C49.3466 69.2171 49.373 69.0944 49.3358 68.9673C49.3001 68.8452 49.2129 68.7598 49.0742 68.7111C48.9331 68.6632 48.7479 68.6497 48.5188 68.6708C48.2878 68.695 48.0154 68.7531 47.7015 68.8449C47.385 68.9375 47.123 69.0357 46.9154 69.1397C46.7085 69.2462 46.5602 69.3586 46.4703 69.4768C46.378 69.5958 46.349 69.7139 46.3832 69.831C46.4204 69.958 46.5099 70.0468 46.6518 70.0973C46.7919 70.1509 46.9778 70.1669 47.2095 70.1451C47.4418 70.1258 47.7163 70.0699 48.0327 69.9773ZM47.1824 74.4496L51.5253 73.1793L51.7451 73.9305L47.4021 75.2009L47.1824 74.4496ZM45.2368 72.0285L51.4148 70.2215L51.64 70.9914L45.462 72.7985L45.2368 72.0285ZM48.3208 71.7391L49.2664 71.4625L49.6752 72.8603L48.7297 73.1369L48.3208 71.7391ZM46.8319 74.7631C46.724 74.3944 46.6419 74.0722 46.5856 73.7965C46.5276 73.5241 46.4966 73.2194 46.4927 72.8824L47.4582 72.7015C47.4698 73.028 47.5007 73.3138 47.5507 73.5589C47.6015 73.8064 47.6737 74.0949 47.7674 74.4246L47.9478 75.0412L46.9948 75.32L46.8319 74.7631Z" fill="#9D9763"/>
<path d="M39.7551 73.9165L41.5405 73.772L41.6046 74.5638L39.8192 74.7083L39.7551 73.9165ZM43.3376 75.701C42.991 75.7316 42.6696 75.686 42.3732 75.5642C42.0771 75.4449 41.8358 75.2639 41.6495 75.0211C41.4631 74.7784 41.3571 74.4978 41.3313 74.1796C41.3051 73.8561 41.3643 73.5583 41.509 73.2862C41.6538 73.0166 41.8627 72.7978 42.1356 72.6299C42.4059 72.4621 42.7158 72.3641 43.0651 72.3358C43.4247 72.3067 43.7541 72.353 44.053 72.4746C44.3494 72.5965 44.5894 72.7789 44.7732 73.0219C44.9546 73.2676 45.0584 73.5522 45.0846 73.8757C45.1103 74.1939 45.0534 74.4877 44.9137 74.7568C44.7714 75.0262 44.5624 75.2437 44.2867 75.4092C44.0112 75.5774 43.6948 75.6746 43.3376 75.701ZM43.2706 74.8742C43.4545 74.8619 43.6149 74.8164 43.7518 74.7376C43.8887 74.6588 43.992 74.5515 44.0617 74.4156C44.1317 74.2823 44.1595 74.1277 44.1453 73.9517C44.1312 73.7784 44.0788 73.6289 43.9879 73.5035C43.8972 73.3806 43.7777 73.2887 43.6296 73.2278C43.4816 73.1694 43.3157 73.1477 43.132 73.1626C42.9509 73.1772 42.7933 73.2252 42.6592 73.3063C42.5254 73.3901 42.4248 73.4998 42.3577 73.6355C42.2908 73.7737 42.2643 73.9295 42.2783 74.1029C42.2924 74.2763 42.3434 74.4245 42.4316 74.5476C42.5197 74.6707 42.6363 74.7602 42.7815 74.8162C42.9266 74.8721 43.0897 74.8915 43.2706 74.8742ZM39.0718 72.5224L40.0577 72.4426L40.366 76.2502L39.3801 76.33L39.0718 72.5224ZM42.7258 71.2342L39.9778 71.4567L40.0328 72.136L39.047 72.2158L38.8138 69.3358L43.5257 68.9543L43.7589 71.8343L42.7808 71.9135L42.7258 71.2342ZM39.8644 70.0556L39.9159 70.6921L42.6639 70.4696L42.6124 69.8331L39.8644 70.0556Z" fill="#9D9763"/>
<path d="M32.9203 74.1307L37.4264 74.6876L37.33 75.4683L32.8238 74.9113L32.9203 74.1307ZM32.2595 69.1915L38.6748 69.9844L38.5759 70.7844L32.1606 69.9915L32.2595 69.1915ZM35.3532 69.9702L36.3309 70.091L35.9813 72.9199L35.0035 72.7991L35.3532 69.9702ZM32.2923 74.0688C32.3636 73.4917 32.4458 72.9643 32.5388 72.4866C32.6293 72.0086 32.7733 71.4575 32.9708 70.8332L33.9588 71.0612C33.7619 71.6385 33.6171 72.1647 33.5244 72.6398C33.4317 73.1149 33.3506 73.6332 33.2812 74.1949L33.1871 74.9562L32.1977 74.834L32.2923 74.0688Z" fill="#9D9763"/>
<path d="M25.7485 69.0535L31.8817 71.132L31.6217 71.8991L25.4885 69.8206L25.7485 69.0535ZM26.0305 70.5265L30.7217 72.1162L30.4668 72.8686L25.7756 71.2788L26.0305 70.5265ZM25.5025 72.2059L29.2237 73.467L29.6624 72.1725L30.5955 72.4887L29.9018 74.5356L25.2475 72.9583L25.5025 72.2059ZM28.9679 69.6964C28.4811 69.5314 28.0794 69.3418 27.7627 69.1276C27.4436 68.9125 27.2231 68.6816 27.1012 68.4347C26.9769 68.187 26.9588 67.9328 27.0472 67.6722C27.1363 67.4091 27.306 67.2158 27.5562 67.0922C27.8039 66.9679 28.1198 66.9173 28.5039 66.9406C28.8855 66.963 29.3197 67.0567 29.8066 67.2217C30.2934 67.3867 30.6976 67.5771 31.0191 67.793C31.3382 68.008 31.5608 68.241 31.6868 68.492C31.8103 68.7422 31.8275 68.9989 31.7383 69.2619C31.65 69.5226 31.4812 69.7134 31.2318 69.8345C30.98 69.9547 30.6621 70.0032 30.278 69.98C29.8939 69.9567 29.4572 69.8622 28.9679 69.6964ZM29.2104 68.9809C29.5202 69.0859 29.785 69.1537 30.0049 69.1843C30.2247 69.215 30.3992 69.2097 30.5283 69.1685C30.6574 69.1272 30.7411 69.0501 30.7795 68.937C30.8194 68.819 30.8011 68.7031 30.7245 68.5894C30.6479 68.4758 30.5143 68.3647 30.3235 68.2562C30.1295 68.1493 29.8764 68.043 29.5641 67.9372C29.2543 67.8322 28.9911 67.7635 28.7746 67.7313C28.5547 67.7006 28.3798 67.7071 28.2499 67.7508C28.1199 67.7945 28.035 67.8753 27.995 67.9934C27.9567 68.1065 27.9762 68.2186 28.0536 68.3298C28.1311 68.441 28.2676 68.5517 28.4633 68.6619C28.6565 68.7712 28.9055 68.8776 29.2104 68.9809Z" fill="#9D9763"/>
<path d="M20.7334 68.972L24.3643 71.1019L23.9683 71.777L20.3374 69.6471L20.7334 68.972ZM22.6581 69.8392C22.3648 69.6671 22.1326 69.4677 21.9616 69.241C21.7884 69.013 21.6879 68.7764 21.6601 68.5314C21.6323 68.2863 21.6834 68.0529 21.8134 67.8313C21.9448 67.6073 22.1242 67.4477 22.3516 67.3524C22.5791 67.2571 22.8346 67.2294 23.1182 67.2694C23.3995 67.308 23.6868 67.4133 23.9802 67.5854C24.2735 67.7575 24.5079 67.9582 24.6834 68.1875C24.8589 68.4168 24.9616 68.6547 24.9917 68.9011C25.0182 69.1484 24.9664 69.3828 24.8363 69.6045C24.7063 69.8262 24.5276 69.9847 24.3001 70.08C24.0704 70.174 23.8126 70.2004 23.5268 70.1591C23.241 70.1179 22.9515 70.0112 22.6581 69.8392ZM23.0344 69.1976C23.171 69.2777 23.3031 69.3296 23.4307 69.3533C23.5547 69.3779 23.6664 69.3697 23.7657 69.3286C23.8637 69.2898 23.9429 69.2189 24.0034 69.1159C24.0638 69.0129 24.087 68.9091 24.0731 68.8046C24.0578 68.7024 24.0092 68.6031 23.9272 68.5069C23.8452 68.4106 23.7348 68.3218 23.596 68.2404C23.4594 68.1602 23.3291 68.1079 23.2051 68.0833C23.0788 68.0574 22.9662 68.062 22.8673 68.0973C22.767 68.1348 22.6867 68.2051 22.6262 68.3081C22.5658 68.4111 22.5437 68.5155 22.5599 68.6213C22.5748 68.7293 22.6243 68.8321 22.7085 68.9297C22.7892 69.0282 22.8979 69.1175 23.0344 69.1976ZM21.0437 65.6416L21.9002 66.1441L19.6462 69.9866L18.7897 69.4841L21.0437 65.6416ZM19.3072 66.7087L20.3753 67.3353L19.9655 68.0339L18.8973 67.4074L19.3072 66.7087ZM22.3796 63.3644L23.236 63.8668L22.4499 65.207L25.708 67.1181L25.308 67.8L21.1934 65.3864L22.3796 63.3644ZM21.9439 70.0793L22.8004 70.5817L22.2369 71.5424L21.3804 71.0399L21.9439 70.0793Z" fill="#9D9763"/>
<path d="M14.4913 63.8342L17.8473 66.8635L17.3203 67.4474L13.9643 64.4181L14.4913 63.8342ZM16.7503 59.3789L21.5487 63.7102L21.0086 64.3085L16.2102 59.9772L16.7503 59.3789ZM19.4314 62.5282L20.1685 63.1935L18.4986 65.0435L17.7615 64.3782L19.4314 62.5282ZM13.8968 63.4235C14.1612 63.1305 14.3937 62.8788 14.5943 62.6682C14.7949 62.4575 15.0375 62.2236 15.3221 61.9664C15.605 61.7112 15.925 61.4458 16.2822 61.1701L16.9452 61.8944C16.6162 62.1465 16.3173 62.3943 16.0485 62.6379C15.7798 62.8814 15.546 63.1075 15.3471 63.3162C15.1465 63.5268 14.9262 63.7651 14.6861 64.031L14.1695 64.6033L13.4324 63.938L13.8968 63.4235ZM18.1249 61.3488L18.8504 62.0037L17.1805 63.8537L16.455 63.1988L18.1249 61.3488Z" fill="#9D9763"/>
</g>
<g id="1979">
<path id="Vector_2" d="M45.4578 59.2033C45.7912 59.1858 46.0982 59.2435 46.3787 59.3761C46.6613 59.5087 46.896 59.7391 47.0825 60.0674C47.2713 60.3956 47.3799 60.832 47.4085 61.3766C47.4386 61.9081 47.3869 62.3702 47.2534 62.7629C47.1219 63.1533 46.9186 63.4576 46.6435 63.6757C46.3704 63.8915 46.0423 64.0094 45.6591 64.0295C45.3646 64.0449 45.0964 64.0015 44.8544 63.8993C44.6123 63.7949 44.4135 63.6461 44.2579 63.4527C44.1021 63.2571 44.0002 63.0317 43.9521 62.7763L44.7834 62.7328C44.8202 62.8544 44.8767 62.9587 44.9529 63.0458C45.0313 63.1327 45.127 63.1981 45.24 63.242C45.353 63.2859 45.4799 63.3042 45.6206 63.2969C45.8458 63.2851 46.034 63.2113 46.1854 63.0755C46.3389 62.9397 46.4505 62.7496 46.5202 62.5055C46.5919 62.259 46.619 61.9694 46.6016 61.6366L46.5528 61.6391C46.4797 61.7751 46.385 61.8949 46.2689 61.9985C46.1527 62.1021 46.0181 62.1839 45.8649 62.2439C45.7139 62.3038 45.5529 62.3383 45.3819 62.3472C45.1048 62.3617 44.8491 62.3101 44.615 62.1923C44.3808 62.0724 44.1915 61.9002 44.0473 61.6759C43.903 61.4494 43.8233 61.1925 43.8082 60.9051C43.7921 60.5982 43.8491 60.3189 43.9792 60.0672C44.1113 59.8133 44.3047 59.6103 44.5594 59.4583C44.8161 59.304 45.1156 59.219 45.4578 59.2033ZM45.4935 59.884C45.3247 59.8928 45.172 59.942 45.0356 60.0315C44.9013 60.1187 44.7976 60.2335 44.7248 60.376C44.652 60.5185 44.6199 60.673 44.6286 60.8394C44.6395 61.0057 44.6876 61.1559 44.7728 61.2902C44.8579 61.4222 44.9707 61.5247 45.1113 61.5975C45.2519 61.6703 45.4077 61.7023 45.5788 61.6933C45.7498 61.6844 45.9035 61.6341 46.0398 61.5424C46.1761 61.4508 46.2817 61.3337 46.3567 61.1911C46.4338 61.0462 46.4671 60.8949 46.4566 60.7373C46.4481 60.5752 46.4003 60.4282 46.313 60.2962C46.2256 60.1621 46.1105 60.0576 45.9676 59.9827C45.8269 59.9077 45.6689 59.8748 45.4935 59.884Z" fill="#28261B"/>
<path id="Vector_3" d="M42.3452 60.3433L42.3442 60.3141L39.9749 60.3967L39.9502 59.6895L43.1969 59.5763L43.2222 60.2997L41.3203 64.3448L40.4428 64.3754L42.3452 60.3433Z" fill="#28261B"/>
<path id="Vector_4" d="M37.8693 59.5371C38.2029 59.5487 38.5037 59.6328 38.7715 59.7894C39.0416 59.9461 39.2552 60.196 39.4124 60.5393C39.5717 60.8827 39.6419 61.3268 39.6228 61.8718C39.6064 62.4039 39.5145 62.8598 39.3472 63.2394C39.1821 63.6169 38.953 63.9023 38.6599 64.0956C38.3691 64.2869 38.0319 64.3758 37.6484 64.3624C37.3537 64.3522 37.0903 64.2856 36.8582 64.1628C36.6261 64.0377 36.441 63.8721 36.3029 63.6659C36.1648 63.4576 36.0829 63.2241 36.0573 62.9656L36.8893 62.9946C36.9153 63.1189 36.9625 63.2277 37.0308 63.321C37.1013 63.4144 37.1909 63.4879 37.2997 63.5415C37.4084 63.5951 37.5332 63.6244 37.674 63.6293C37.8994 63.6371 38.0934 63.58 38.256 63.4579C38.4208 63.3359 38.5485 63.1563 38.6393 62.9191C38.7322 62.6799 38.7846 62.3937 38.7962 62.0606L38.7475 62.0589C38.6627 62.1881 38.5579 62.2992 38.4332 62.3923C38.3084 62.4854 38.1672 62.5551 38.0094 62.6016C37.8537 62.6482 37.6903 62.6684 37.5191 62.6625C37.2418 62.6528 36.9917 62.5791 36.7687 62.4414C36.5458 62.3016 36.3723 62.1136 36.2483 61.8776C36.1243 61.6395 36.0673 61.3765 36.0774 61.0889C36.0881 60.7818 36.1693 60.5086 36.3208 60.2691C36.4746 60.0277 36.685 59.8423 36.952 59.713C37.2213 59.5816 37.527 59.523 37.8693 59.5371ZM37.8454 60.2184C37.6764 60.2125 37.5201 60.2482 37.3764 60.3254C37.2349 60.4006 37.1217 60.506 37.0367 60.6416C36.9517 60.7773 36.9062 60.9283 36.9004 61.0949C36.8968 61.2615 36.9315 61.4153 37.0047 61.5565C37.0779 61.6954 37.1814 61.8073 37.3151 61.8921C37.4488 61.9769 37.6012 62.0222 37.7724 62.0282C37.9435 62.0342 38.101 61.9974 38.2448 61.918C38.3886 61.8386 38.504 61.7311 38.5912 61.5955C38.6806 61.4579 38.727 61.3101 38.7304 61.1521C38.7361 60.9899 38.7012 60.8393 38.6258 60.7003C38.5505 60.5591 38.4449 60.445 38.3091 60.3579C38.1755 60.271 38.0209 60.2245 37.8454 60.2184Z" fill="#28261B"/>
<path id="Vector_5" d="M34.8455 64.0121L33.9947 63.9676L34.1979 60.0972L34.1719 60.0958L33.0341 60.7416L33.0748 59.9669L34.2801 59.2758L35.092 59.3183L34.8455 64.0121Z" fill="#28261B"/>
</g>
</g>
</g>
</svg>
