<svg width="20" height="20" viewBox="0 0 20 20" fill="none" xmlns="http://www.w3.org/2000/svg">
<g id="icons/megaphone">
<path id="Exclude" fill-rule="evenodd" clip-rule="evenodd" d="M10 20C15.5228 20 20 15.5228 20 10C20 4.47715 15.5228 0 10 0C4.47715 0 0 4.47715 0 10C0 15.5228 4.47715 20 10 20ZM13.6923 4.55385C13.6923 4.24797 13.9403 4 14.2462 4C14.5234 4 14.7531 4.20726 14.7937 4.47388L14.8 4.46667V4.55507L14.8 4.5581L14.8 4.56112V8.2V11.84L14.8 11.8419L14.8 11.8438V11.9333L14.7936 11.9261C14.7531 12.1927 14.5234 12.4 14.2461 12.4C13.9403 12.4 13.6923 12.152 13.6923 11.8461V11.2031C13.1793 10.9641 12.4596 10.7138 11.4769 10.5333C10.3368 10.324 9.43931 10.2085 8.79626 10.1449C8.13674 10.0796 7.6 9.5294 7.6 8.86666V7.53334C7.6 6.8706 8.13675 6.3204 8.79627 6.25513C9.43933 6.19149 10.3368 6.07605 11.4769 5.86668C12.4596 5.68621 13.1793 5.43595 13.6923 5.19686V4.55385ZM6.4 8.2V10C4.48 10 4 9.19411 4 8.2C4 7.20589 4.48 6.4 6.4 6.4V8.2ZM16 8.5C16 8.99705 15.7314 9.4 15.4 9.4L15.4 8.5L15.4 7.6C15.7314 7.6 16 8.00294 16 8.5ZM7.56617 15.251L6.48998 11.2628C6.89519 11.2795 7.36687 11.2269 7.85549 11.0969C8.02158 11.0528 8.18146 11.0018 8.33362 10.9453L9.36627 14.7721C9.36627 14.7721 9.62251 15.7216 8.72246 15.9611C7.82241 16.2006 7.56617 15.251 7.56617 15.251Z" fill="#B8B8B8"/>
</g>
</svg>
