<svg width="24" height="24" viewBox="0 0 24 24" fill="none" xmlns="http://www.w3.org/2000/svg">
<g id="icon=eye.slash">
<path id="Subtract" fill-rule="evenodd" clip-rule="evenodd" d="M18.8492 18.8491L19.293 19.2929L18.5859 20L16.2109 17.625C15.0111 18.1554 13.6116 18.4999 12 18.4999C5 18.4999 2 11.9999 2 11.9999C2 11.9999 3.23905 9.31531 5.98259 7.3967L3.29301 4.70712L4.00012 4.00001L4.70707 4.70696L4.70703 4.707L18.8492 18.8491L18.8492 18.8491ZM7.7891 6.37486L9.60423 8.18999C10.298 7.75284 11.1194 7.49992 12 7.49992C14.4853 7.49992 16.5 9.51464 16.5 11.9999C16.5 12.8805 16.2471 13.702 15.8099 14.3957L18.0174 16.6032C20.7609 14.6845 22 11.9999 22 11.9999C22 11.9999 19 5.49992 12 5.49992C10.3884 5.49992 8.98886 5.84445 7.7891 6.37486ZM14.7076 13.2934C14.895 12.9018 15 12.4631 15 12C15 10.3431 13.6569 8.99997 12 8.99997C11.5369 8.99997 11.0982 9.10492 10.7066 9.29234L14.7076 13.2934ZM7.5 11.9999C7.5 11.1194 7.75291 10.2979 8.19006 9.60417L9.2924 10.7065C9.10496 11.0982 9 11.5368 9 12C9 13.6568 10.3431 15 12 15C12.4632 15 12.9018 14.895 13.2935 14.7076L14.3958 15.8099C13.702 16.247 12.8805 16.4999 12 16.4999C9.51472 16.4999 7.5 14.4852 7.5 11.9999Z" fill="#B8B8B8"/>
</g>
</svg>
