<svg width="12" height="10" viewBox="0 0 12 10" fill="none" xmlns="http://www.w3.org/2000/svg">
<g id="Frame 42">
<path id="Vector" d="M11.7071 1.29289C12.0976 1.68342 12.0976 2.31658 11.7071 2.70711L5.46835 8.94586C5.46454 8.94986 5.46045 8.95411 5.45608 8.9586C5.43875 8.97639 5.41669 8.9982 5.39028 9.02267C5.33842 9.07071 5.26466 9.13372 5.17189 9.19779C5.00541 9.31279 4.6791 9.5 4.25 9.5C3.8209 9.5 3.49459 9.31279 3.32811 9.19779C3.23534 9.13372 3.16158 9.07071 3.10972 9.02267C3.08331 8.9982 3.06125 8.97639 3.04392 8.9586C3.03955 8.95412 3.03547 8.94987 3.03166 8.94587L0.292893 6.20711C-0.0976311 5.81658 -0.0976311 5.18342 0.292893 4.79289C0.683417 4.40237 1.31658 4.40237 1.70711 4.79289L4.25 7.33579L10.2929 1.29289C10.6834 0.902369 11.3166 0.902369 11.7071 1.29289Z" fill="white"/>
</g>
</svg>
