<svg width="190" height="24" viewBox="0 0 190 24" fill="none" xmlns="http://www.w3.org/2000/svg">
<g id="Frame 7347">
<path id="Vector" d="M12.428 17.4088C11.993 17.9038 11.7755 18.5013 11.7755 19.2013C11.7755 19.8838 11.9905 20.4738 12.4155 20.9688C12.843 21.4638 13.4055 21.7113 14.1055 21.7113C14.788 21.7113 15.343 21.4638 15.7705 20.9688C16.1955 20.4738 16.4105 19.8838 16.4105 19.2013C16.4105 18.5013 16.1955 17.9038 15.7705 17.4088C15.343 16.9138 14.788 16.6663 14.1055 16.6663C13.423 16.6663 12.8655 16.9138 12.428 17.4088ZM19.023 20.9688C18.748 21.4963 18.3705 21.9563 17.893 22.3513C17.4155 22.7438 16.853 23.0488 16.2055 23.2713C15.5555 23.4938 14.8555 23.6038 14.1055 23.6038C13.373 23.6038 12.6755 23.4938 12.0205 23.2713C11.363 23.0488 10.7955 22.7438 10.318 22.3513C9.83801 21.9563 9.46051 21.5013 9.17801 20.9813C8.89551 20.4588 8.75551 19.8838 8.75551 19.2538C8.75551 18.3988 8.96801 17.7088 9.39551 17.1788C9.82301 16.6488 10.2905 16.2488 10.803 15.9763C11.298 15.7038 11.963 15.4738 12.8005 15.2838C13.0055 15.0638 13.008 14.9013 12.813 14.7988C12.6155 14.6963 12.518 14.5838 12.518 14.4663C12.518 14.0563 12.9755 13.8888 13.888 13.9663C14.8005 14.0438 15.3505 14.2013 15.5405 14.4388C15.728 14.6613 15.7605 14.8113 15.643 14.8888C15.523 14.9638 15.463 15.0963 15.463 15.2838C15.463 15.3013 15.6705 15.3538 16.0905 15.4388C16.508 15.5238 16.9655 15.7113 17.458 16.0013C17.9555 16.2738 18.408 16.6713 18.8155 17.1913C19.2255 17.7138 19.4305 18.3988 19.4305 19.2538C19.4305 19.8663 19.2955 20.4388 19.023 20.9688ZM14.4505 5.83883C14.323 6.55383 14.1655 7.22133 13.978 7.83383C13.738 8.60383 13.4405 9.21383 13.083 9.66633C12.723 10.1163 12.2705 10.2838 11.7255 10.1638C11.3155 10.0613 11.123 9.78883 11.148 9.34633C11.1755 8.90133 11.248 8.33883 11.368 7.65633C11.453 7.09383 11.5105 6.58133 11.5455 6.11883C11.5805 5.65883 11.613 5.08633 11.648 4.40383C11.2055 4.42133 10.4155 4.47383 9.28051 4.55883C8.14551 4.64383 7.56801 4.68633 7.55301 4.68633C6.97301 4.77133 6.44301 4.93883 5.96551 5.18633C5.48801 5.43383 4.40301 5.03633 2.71301 3.99383C2.42301 3.80633 2.21551 3.52883 2.08801 3.16383C1.95801 2.79633 2.46551 2.68133 3.61051 2.81633C4.56551 2.97133 5.99551 3.02633 7.89801 2.98383C9.80051 2.94133 10.958 2.86133 11.368 2.74133C11.758 2.60383 12.253 2.51133 12.8505 2.45883C13.448 2.40883 13.9355 2.43383 14.3105 2.53633C15.0455 2.74133 15.313 3.05133 15.118 3.47133C14.9205 3.88883 14.7705 4.29383 14.668 4.68633C14.653 4.73633 14.5805 5.12133 14.4505 5.83883ZM19.5855 10.4963C19.6005 12.1538 19.423 13.3488 19.048 14.0813C18.673 14.8163 18.2805 15.1913 17.868 15.2088C17.543 15.2238 17.2805 15.0063 17.0755 14.5538C16.8705 14.1038 16.743 13.2888 16.6905 12.1113C15.2405 12.3838 13.543 12.6813 11.598 13.0063C9.65051 13.3313 8.07301 13.5363 6.86051 13.6213C6.11051 13.7563 5.47801 13.9613 4.96801 14.2338C4.45551 14.5088 3.32801 14.1413 1.58801 13.1338C0.95551 12.7763 0.615511 12.4138 0.563011 12.0463C0.513011 11.6788 1.00801 11.5388 2.04801 11.6238C2.44051 11.6588 2.91051 11.6913 3.45551 11.7263C4.00301 11.7613 4.51551 11.7763 4.99301 11.7763C5.21301 11.7763 5.44551 11.7738 5.68301 11.7638C5.92301 11.7563 6.17801 11.7513 6.45051 11.7513V9.01383C6.45051 8.67133 6.31801 8.40633 6.05551 8.21883C5.79051 8.03133 5.47051 7.89383 5.09551 7.80883C4.63301 7.67383 4.44551 7.45633 4.53051 7.15633C4.61551 6.85883 5.02551 6.70133 5.76051 6.68383C5.99801 6.68383 6.47301 6.70383 7.18051 6.74633C7.88801 6.78883 8.40551 6.85383 8.73051 6.93883C9.25801 7.07633 9.48051 7.33633 9.39551 7.71883C9.31051 8.10383 9.26801 8.49133 9.26801 8.88383V11.5463C10.598 11.4288 11.9255 11.2863 13.248 11.1238C14.5705 10.9638 15.718 10.8138 16.6905 10.6763V3.30383C16.6905 2.80883 16.558 2.41633 16.2955 2.12633C16.0305 1.83633 15.583 1.55383 14.9505 1.28133C14.4555 1.05883 14.238 0.786332 14.298 0.461332C14.358 0.138832 14.8055 -0.016168 15.643 0.0013322C15.8805 0.0188317 16.448 0.0863322 17.3455 0.206332C18.2405 0.326332 18.8605 0.453833 19.2005 0.591332C19.6955 0.761333 19.883 1.04633 19.763 1.44883C19.643 1.84883 19.5855 2.36633 19.5855 2.99633V8.65383C19.908 8.62133 20.2455 8.56383 20.5955 8.48883C20.9455 8.41133 21.2055 8.28633 21.3755 8.11633C21.513 7.98133 21.833 7.90883 22.3355 7.89883C22.8405 7.89133 23.278 7.91133 23.653 7.96383C24.558 8.13383 24.9605 8.53383 24.858 9.16633C24.7555 9.79633 24.278 10.1138 23.4255 10.1138H19.5855V10.4963ZM45.7605 9.33383C45.428 9.76883 44.8005 9.84883 43.878 9.57633C43.2305 9.37133 42.133 9.04383 40.5905 8.59133C39.0455 8.13883 37.7255 7.74883 36.633 7.42633C35.3705 8.10883 34.0405 8.70883 32.6405 9.23133C31.2405 9.75133 29.9105 10.1313 28.648 10.3688C27.743 10.5413 27.1705 10.4538 26.9305 10.1138C26.693 9.77133 26.7855 9.54133 27.213 9.42133C29.193 8.85883 31.198 7.98883 33.2305 6.81133C35.2605 5.63383 36.983 4.41383 38.4005 3.15133C37.633 3.18383 36.8005 3.23133 35.9055 3.29133C35.008 3.35133 34.3805 3.40633 34.023 3.45633C33.733 3.47383 33.4855 3.51633 33.2805 3.58633C33.0755 3.65383 32.9655 3.68883 32.948 3.68883C32.623 3.80633 32.2305 3.91883 31.7705 4.02133C31.3105 4.12133 30.448 3.76383 29.1855 2.94633C28.638 2.58633 28.433 2.26383 28.5705 1.97383C28.7055 1.68383 29.133 1.58133 29.8505 1.66633C30.038 1.68383 30.3655 1.71383 30.8355 1.75383C31.3055 1.79883 31.8205 1.81883 32.3855 1.81883C33.3405 1.81883 34.6105 1.79883 36.198 1.75383C37.7855 1.71383 38.7505 1.60633 39.0905 1.43383C39.3655 1.29883 39.9355 1.23883 40.808 1.25633C41.678 1.27383 42.1905 1.31633 42.343 1.38383C42.888 1.53633 43.1505 1.81383 43.123 2.21633C43.098 2.61633 42.7605 3.07383 42.113 3.58633C41.5655 4.06383 40.9905 4.53633 40.3855 5.00633C39.778 5.47633 39.1505 5.90633 38.503 6.29883C39.1505 6.45383 39.753 6.58383 40.308 6.69633C40.863 6.80633 41.2755 6.87883 41.5505 6.91383C41.9405 6.94633 42.2305 6.93883 42.4205 6.88883C42.608 6.83633 42.9155 6.85383 43.3405 6.93883C43.768 7.05883 44.173 7.22383 44.558 7.43883C44.9405 7.65133 45.2605 7.86133 45.518 8.06633C46.013 8.47383 46.093 8.89633 45.7605 9.33383ZM32.4105 14.1338C31.898 14.1838 31.6255 14.2088 31.5905 14.2088C30.7705 14.2613 30.0805 14.4538 29.518 14.7863C28.953 15.1188 27.683 14.7313 25.703 13.6213C24.9355 13.1938 24.653 12.8363 24.858 12.5463C25.063 12.2538 25.558 12.1438 26.343 12.2138C27.0605 12.2813 27.768 12.3413 28.468 12.3913C29.168 12.4413 30.0705 12.4688 31.1805 12.4688L36.4555 12.4938C37.0355 12.4938 38.063 12.4863 39.5405 12.4688C41.0155 12.4513 41.9405 12.3663 42.318 12.2138C43.188 11.8538 44.3655 11.7138 45.8505 11.7913C47.3355 11.8663 48.0505 12.2813 48.0005 13.0313C47.9655 13.5613 47.6555 13.8688 47.0655 13.9538C46.478 14.0388 45.7805 14.0563 44.9805 14.0038C44.1605 13.9713 43.208 13.9488 42.1255 13.9413C41.0405 13.9313 39.6455 13.9363 37.9405 13.9538V18.1513C37.973 20.0463 37.833 21.4788 37.518 22.4538C37.2005 23.4263 36.7455 23.9288 36.148 23.9613C35.738 23.9788 35.423 23.6088 35.2005 22.8488C34.978 22.0888 34.858 20.9588 34.8405 19.4563V14.0038C33.733 14.0388 32.9205 14.0813 32.4105 14.1338ZM60.558 17.4088C60.1205 17.9038 59.903 18.5013 59.903 19.2013C59.903 19.8838 60.118 20.4738 60.543 20.9688C60.9705 21.4638 61.533 21.7113 62.233 21.7113C62.9155 21.7113 63.4705 21.4638 63.898 20.9688C64.3255 20.4738 64.538 19.8838 64.538 19.2013C64.538 18.5013 64.3255 17.9038 63.898 17.4088C63.4705 16.9138 62.9155 16.6663 62.233 16.6663C61.5505 16.6663 60.993 16.9138 60.558 17.4088ZM67.1505 20.9688C66.8755 21.4963 66.5005 21.9563 66.023 22.3513C65.5455 22.7438 64.9805 23.0488 64.333 23.2713C63.6855 23.4938 62.9855 23.6038 62.233 23.6038C61.5005 23.6038 60.8055 23.4938 60.148 23.2713C59.4905 23.0488 58.923 22.7438 58.4455 22.3513C57.9655 21.9563 57.588 21.5013 57.3055 20.9813C57.023 20.4588 56.883 19.8838 56.883 19.2538C56.883 18.3988 57.098 17.7088 57.523 17.1788C57.9505 16.6488 58.418 16.2488 58.9305 15.9763C59.4255 15.7038 60.0905 15.4738 60.928 15.2838C61.133 15.0638 61.1355 14.9013 60.9405 14.7988C60.7455 14.6963 60.648 14.5838 60.648 14.4663C60.648 14.0563 61.103 13.8888 62.0155 13.9663C62.9305 14.0438 63.478 14.2013 63.668 14.4388C63.8555 14.6613 63.8905 14.8113 63.7705 14.8888C63.6505 14.9638 63.5905 15.0963 63.5905 15.2838C63.5905 15.3013 63.798 15.3538 64.218 15.4388C64.6355 15.5238 65.093 15.7113 65.588 16.0013C66.083 16.2738 66.5355 16.6713 66.943 17.1913C67.353 17.7138 67.558 18.3988 67.558 19.2538C67.558 19.8663 67.423 20.4388 67.1505 20.9688ZM62.578 5.83883C62.4505 6.55383 62.293 7.22133 62.1055 7.83383C61.868 8.60383 61.568 9.21383 61.2105 9.66633C60.8505 10.1163 60.4005 10.2838 59.853 10.1638C59.443 10.0613 59.2505 9.78883 59.278 9.34633C59.303 8.90133 59.3755 8.33883 59.4955 7.65633C59.5805 7.09383 59.638 6.58133 59.673 6.11883C59.708 5.65883 59.743 5.08633 59.7755 4.40383C59.333 4.42133 58.543 4.47383 57.408 4.55883C56.273 4.64383 55.6955 4.68633 55.6805 4.68633C55.1005 4.77133 54.5705 4.93883 54.093 5.18633C53.6155 5.43383 52.5305 5.03633 50.8405 3.99383C50.5505 3.80633 50.343 3.52883 50.2155 3.16383C50.088 2.79633 50.5955 2.68133 51.738 2.81633C52.693 2.97133 54.123 3.02633 56.0255 2.98383C57.928 2.94133 59.0855 2.86133 59.4955 2.74133C59.8855 2.60383 60.383 2.51133 60.978 2.45883C61.578 2.40883 62.063 2.43383 62.438 2.53633C63.173 2.74133 63.4405 3.05133 63.2455 3.47133C63.048 3.88883 62.898 4.29383 62.798 4.68633C62.7805 4.73633 62.708 5.12133 62.578 5.83883ZM67.713 10.4963C67.7305 12.1538 67.5505 13.3488 67.1755 14.0813C66.8005 14.8163 66.408 15.1913 65.998 15.2088C65.673 15.2238 65.408 15.0063 65.203 14.5538C64.998 14.1038 64.8705 13.2888 64.818 12.1113C63.368 12.3838 61.6705 12.6813 59.7255 13.0063C57.778 13.3313 56.2005 13.5363 54.9905 13.6213C54.238 13.7563 53.608 13.9613 53.0955 14.2338C52.583 14.5088 51.4555 14.1413 49.7155 13.1338C49.083 12.7763 48.743 12.4138 48.6905 12.0463C48.6405 11.6788 49.1355 11.5388 50.1755 11.6238C50.568 11.6588 51.038 11.6913 51.583 11.7263C52.1305 11.7613 52.643 11.7763 53.1205 11.7763C53.343 11.7763 53.573 11.7738 53.8105 11.7638C54.0505 11.7563 54.3055 11.7513 54.578 11.7513V9.01383C54.578 8.67133 54.4455 8.40633 54.183 8.21883C53.918 8.03133 53.598 7.89383 53.223 7.80883C52.7605 7.67383 52.573 7.45633 52.658 7.15633C52.7455 6.85883 53.1555 6.70133 53.888 6.68383C54.1255 6.68383 54.6005 6.70383 55.3105 6.74633C56.0155 6.78883 56.533 6.85383 56.858 6.93883C57.388 7.07633 57.608 7.33633 57.523 7.71883C57.438 8.10383 57.3955 8.49133 57.3955 8.88383V11.5463C58.728 11.4288 60.053 11.2863 61.3755 11.1238C62.698 10.9638 63.848 10.8138 64.818 10.6763V3.30383C64.818 2.80883 64.6855 2.41633 64.423 2.12633C64.158 1.83633 63.7105 1.55383 63.078 1.28133C62.583 1.05883 62.3655 0.786332 62.4255 0.461332C62.4855 0.138832 62.933 -0.016168 63.7705 0.0013322C64.008 0.0188317 64.5755 0.0863322 65.473 0.206332C66.368 0.326332 66.988 0.453833 67.328 0.591332C67.823 0.761333 68.0105 1.04633 67.8905 1.44883C67.7705 1.84883 67.713 2.36633 67.713 2.99633V8.65383C68.0355 8.62133 68.373 8.56383 68.723 8.48883C69.073 8.41133 69.333 8.28633 69.503 8.11633C69.6405 7.98133 69.9605 7.90883 70.463 7.89883C70.968 7.89133 71.4055 7.91133 71.783 7.96383C72.6855 8.13383 73.088 8.53383 72.9855 9.16633C72.883 9.79633 72.4055 10.1138 71.553 10.1138H67.713V10.4963ZM90.0355 6.04383C89.968 6.06133 89.898 6.06883 89.8305 6.06883C89.5405 6.10383 89.268 6.15383 89.0105 6.22133C88.7555 6.29133 88.618 6.32383 88.603 6.32383C88.313 6.39383 88.0005 6.49633 87.668 6.63133C87.3355 6.76883 86.7605 6.58883 85.9405 6.09383C86.0755 6.34883 86.183 6.63133 86.2605 6.93883C86.338 7.24633 86.3755 7.58883 86.3755 7.96383C86.3755 8.26883 86.3455 8.56383 86.2855 8.84633C86.2255 9.12883 86.1355 9.39633 86.018 9.65383C86.4955 9.68633 87.108 9.69883 87.8605 9.69133C88.6105 9.68133 89.3355 9.66883 90.0355 9.65383V6.04383ZM92.1355 22.6313C91.758 23.3313 91.358 23.6988 90.9305 23.7338C90.5905 23.7488 90.308 23.4813 90.0855 22.9263C89.8655 22.3713 89.7355 21.6238 89.703 20.6863V16.5638C89.2255 16.5813 88.133 16.6288 86.4255 16.7063C84.718 16.7813 83.858 16.8213 83.8405 16.8213C83.1405 16.9063 82.5555 17.0938 82.0855 17.3838C81.618 17.6738 80.4855 17.2913 78.6955 16.2313C78.423 16.0438 78.2155 15.7588 78.0805 15.3738C77.943 14.9888 78.448 14.8488 79.5905 14.9513C80.598 15.1063 82.3305 15.1613 84.788 15.1188C87.2455 15.0763 88.6805 14.9938 89.088 14.8738C89.533 14.7563 90.053 14.6688 90.6505 14.6188C91.248 14.5688 91.743 14.5763 92.1355 14.6438C92.8505 14.7988 93.123 15.1013 92.9555 15.5538C92.783 16.0063 92.688 16.4288 92.673 16.8213V19.7638C92.688 20.9763 92.5105 21.9313 92.1355 22.6313ZM82.663 5.86383C82.168 5.30133 81.518 5.01883 80.718 5.01883C79.933 5.01883 79.283 5.28883 78.7705 5.82633C78.2605 6.36383 78.003 7.05883 78.003 7.91133C78.003 8.71383 78.2605 9.38383 78.7705 9.92133C79.283 10.4588 79.933 10.7288 80.718 10.7288C81.518 10.7288 82.168 10.4588 82.663 9.92133C83.158 9.38383 83.4055 8.71383 83.4055 7.91133C83.4055 7.10883 83.158 6.42633 82.663 5.86383ZM90.0355 3.30383C90.0355 2.80883 89.903 2.41633 89.6405 2.12633C89.3755 1.83633 88.9255 1.55383 88.2955 1.28133C87.8005 1.05883 87.583 0.786332 87.643 0.461332C87.703 0.138832 88.1505 -0.016168 88.9855 0.0013322C89.2255 0.0188317 89.793 0.0863322 90.688 0.206332C91.5855 0.326332 92.203 0.453833 92.5455 0.588832C93.038 0.761333 93.2255 1.04633 93.108 1.44883C92.988 1.84883 92.928 2.36633 92.928 2.99633V9.49883C92.9455 11.1538 92.7655 12.3313 92.3905 13.0313C92.0155 13.7313 91.623 14.0988 91.213 14.1338C90.8905 14.1488 90.6205 13.9488 90.4055 13.5313C90.193 13.1138 90.0705 12.3313 90.0355 11.1888C89.933 11.2063 89.8655 11.2138 89.8305 11.2138C89.5405 11.2488 89.268 11.2988 89.0105 11.3688C88.7555 11.4363 88.618 11.4688 88.603 11.4688C88.278 11.5563 87.918 11.6613 87.5255 11.7888C87.1355 11.9188 86.383 11.5813 85.2755 10.7788C85.0005 11.0863 84.688 11.3538 84.3405 11.5863C83.9905 11.8163 83.618 12.0088 83.2255 12.1613C82.833 12.3313 82.423 12.4613 81.998 12.5463C81.5705 12.6313 81.143 12.6738 80.718 12.6738C80.033 12.6738 79.3555 12.5663 78.683 12.3538C78.008 12.1413 77.398 11.8288 76.8505 11.4188C76.323 11.0263 75.888 10.5363 75.5455 9.94633C75.203 9.35883 75.0355 8.69633 75.0355 7.96383C75.0355 7.00633 75.2605 6.24883 75.713 5.68383C76.163 5.12133 76.6555 4.67883 77.1855 4.35383C77.7305 4.04633 78.448 3.78133 79.3355 3.55883C79.573 3.30383 79.583 3.12883 79.3605 3.03383C79.138 2.94133 79.028 2.80883 79.028 2.63883C79.028 2.17633 79.518 1.98883 80.5005 2.07383C81.4805 2.16133 82.0655 2.34883 82.253 2.63883C82.4055 2.86133 82.428 3.01883 82.318 3.11133C82.2055 3.20633 82.158 3.35383 82.178 3.55883C82.483 3.62883 82.758 3.70383 82.9955 3.78883C83.233 3.85883 83.508 3.96633 83.8155 4.10883C84.123 4.25633 84.4205 4.43883 84.7105 4.66133C84.778 4.57633 84.9105 4.51883 85.108 4.49383C85.303 4.46883 85.5805 4.47383 85.9405 4.50633C86.4005 4.54133 87.023 4.55383 87.808 4.54633C88.593 4.53633 89.3355 4.52383 90.0355 4.50633V3.30383ZM116.506 22.3113C116.216 23.3788 115.791 23.9288 115.226 23.9638C114.833 23.9788 114.536 23.5863 114.331 22.7863C114.126 21.9838 114.023 20.7963 114.023 19.2263V3.30383C114.023 2.80883 113.891 2.41633 113.626 2.12633C113.361 1.83633 112.913 1.55383 112.281 1.28133C111.788 1.05883 111.568 0.786332 111.631 0.461332C111.688 0.138832 112.138 -0.016168 112.973 0.0013322C113.213 0.0188317 113.778 0.0863322 114.676 0.206332C115.573 0.326332 116.191 0.453833 116.533 0.591332C117.026 0.761333 117.213 1.04633 117.096 1.44633C116.976 1.84883 116.916 2.36633 116.916 2.99633V17.8188C116.933 19.7463 116.796 21.2438 116.506 22.3113ZM111.053 16.3588C110.438 16.5638 109.773 16.2738 109.056 15.4888C108.613 14.9938 107.963 14.2913 107.111 13.3763C106.258 12.4638 105.558 11.7338 105.013 11.1888C104.278 12.1963 103.441 13.1938 102.503 14.1838C101.563 15.1738 100.566 15.9513 99.508 16.5138C98.773 16.8888 98.2455 16.9738 97.9205 16.7688C97.5955 16.5638 97.648 16.2988 98.073 15.9763C99.183 15.0713 100.373 13.6713 101.646 11.7763C102.916 9.88383 103.843 7.97133 104.423 6.04383C104.543 5.65133 104.556 5.30883 104.461 5.01883C104.368 4.72883 104.123 4.47383 103.733 4.25133C103.203 3.90883 102.946 3.61633 102.963 3.36633C102.981 3.12133 103.373 3.01383 104.141 3.04633C104.533 3.04633 105.118 3.18383 105.896 3.45633C106.671 3.73133 107.248 3.96883 107.623 4.17383C108.066 4.44633 108.271 4.72133 108.238 4.99383C108.203 5.26633 108.083 5.59883 107.878 5.99133C107.588 6.62383 107.286 7.25133 106.971 7.87383C106.653 8.49633 106.308 9.11383 105.933 9.72883C106.428 10.1563 106.918 10.5838 107.406 11.0088C107.893 11.4363 108.221 11.7088 108.391 11.8288C108.698 12.0163 108.976 12.1138 109.223 12.1238C109.471 12.1313 109.713 12.2563 109.953 12.4938C110.293 12.8363 110.601 13.2613 110.873 13.7738C111.148 14.2863 111.318 14.6188 111.386 14.7738C111.778 15.6263 111.668 16.1538 111.053 16.3588ZM140.62 7.60383C140.398 8.97133 140.118 10.2663 139.775 11.4963C139.486 12.5888 139.143 13.4963 138.751 14.2213C138.361 14.9488 137.848 15.2513 137.215 15.1313C136.806 15.0463 136.631 14.7313 136.691 14.1838C136.751 13.6388 136.9 12.6913 137.141 11.3413C137.311 10.3188 137.446 9.32883 137.548 8.37383C137.65 7.41633 137.728 6.33383 137.781 5.12133C137.233 5.13883 135.791 5.19383 133.453 5.28883C131.116 5.38133 129.938 5.42883 129.921 5.42883C129.271 5.53133 128.653 5.71383 128.066 5.97883C127.476 6.24383 126.328 5.82883 124.621 4.73633C124.313 4.54883 124.103 4.26383 123.993 3.87883C123.883 3.49633 124.391 3.36383 125.516 3.48383C126.523 3.65383 128.653 3.71383 131.906 3.66133C135.156 3.61133 136.993 3.52633 137.421 3.40633C137.813 3.26883 138.346 3.18133 139.021 3.13633C139.696 3.09383 140.228 3.11633 140.62 3.20133C141.373 3.37133 141.635 3.68883 141.413 4.14883C141.193 4.60883 141.048 5.03633 140.98 5.42883C140.961 5.51383 140.843 6.23883 140.62 7.60383ZM132.838 11.3688C132.838 11.0263 132.715 10.7613 132.468 10.5738C132.221 10.3863 131.908 10.2513 131.533 10.1638C131.088 10.0288 130.906 9.80633 130.983 9.49883C131.061 9.19133 131.456 9.02133 132.173 8.98633C132.413 9.00383 132.893 9.03383 133.62 9.07633C134.343 9.11883 134.87 9.18383 135.193 9.26883C135.706 9.40383 135.918 9.66883 135.833 10.0613C135.748 10.4538 135.706 10.8463 135.706 11.2388V17.4863C136.353 17.4513 136.926 17.4188 137.421 17.3838C137.915 17.3488 138.248 17.2988 138.421 17.2313C139.273 16.8713 140.428 16.7313 141.888 16.8088C143.348 16.8838 144.051 17.2988 144.001 18.0488C143.983 18.5788 143.681 18.8813 143.09 18.9588C142.503 19.0338 141.816 19.0488 141.031 18.9963C140.193 18.9638 139.213 18.9463 138.086 18.9463C136.961 18.9463 135.483 18.9538 133.658 18.9713C131.678 18.9888 130.248 19.0338 129.37 19.1113C128.491 19.1888 128.033 19.2263 128.001 19.2263C127.181 19.2788 126.493 19.4663 125.941 19.7913C125.383 20.1138 124.133 19.7313 122.188 18.6388C121.438 18.2113 121.161 17.8488 121.356 17.5513C121.553 17.2513 122.036 17.1438 122.803 17.2313C123.503 17.2988 124.191 17.3588 124.866 17.4088C125.538 17.4588 126.421 17.4863 127.513 17.4863H127.541V12.0088C127.541 11.6663 127.411 11.4013 127.156 11.2138C126.901 11.0263 126.591 10.8913 126.233 10.8038C125.791 10.6688 125.606 10.4463 125.683 10.1388C125.761 9.83133 126.148 9.66133 126.848 9.62633C127.106 9.64383 127.596 9.67383 128.321 9.71633C129.046 9.75883 129.571 9.82383 129.893 9.90883C130.406 10.0438 130.62 10.3088 130.533 10.7013C130.448 11.0938 130.406 11.4863 130.406 11.8788V17.5113H132.838V11.3688ZM157.748 13.1863C157.236 13.1863 156.763 13.1888 156.326 13.1988C155.893 13.2063 155.486 13.2188 155.111 13.2363V16.0788C155.76 16.0613 156.385 16.0438 156.993 16.0263C157.598 16.0113 158.133 15.9938 158.593 15.9763V13.1863H157.748ZM158.798 3.80383C158.251 3.29883 157.603 3.04883 156.853 3.04883C156.118 3.04883 155.473 3.29883 154.918 3.80383C154.366 4.30633 154.086 4.94133 154.086 5.70883C154.086 6.47883 154.366 7.11383 154.918 7.61633C155.473 8.12133 156.118 8.37133 156.853 8.37133C157.603 8.37133 158.251 8.12133 158.798 7.61633C159.343 7.11383 159.616 6.47883 159.616 5.70883C159.616 4.94133 159.343 4.30633 158.798 3.80383ZM162.126 7.66883C161.801 8.23883 161.366 8.72133 160.821 9.11383C160.273 9.49133 159.65 9.78133 158.951 9.98633C158.251 10.1888 157.543 10.2913 156.826 10.2913C156.143 10.2913 155.461 10.1888 154.778 9.98633C154.096 9.78133 153.48 9.49133 152.936 9.11383C152.388 8.72133 151.946 8.23883 151.603 7.66883C151.26 7.09633 151.093 6.44383 151.093 5.70883C151.093 4.82383 151.323 4.10883 151.783 3.57133C152.243 3.03383 152.748 2.62133 153.293 2.33133C153.84 2.04133 154.338 1.84383 154.79 1.74133C155.243 1.63883 155.468 1.58133 155.468 1.56383C155.76 1.32383 155.786 1.16133 155.546 1.07633C155.308 0.991332 155.188 0.878832 155.188 0.743832C155.203 0.301332 155.686 0.108832 156.635 0.168832C157.581 0.228832 158.165 0.401333 158.388 0.691332C158.576 0.913833 158.613 1.06383 158.503 1.14133C158.393 1.21633 158.336 1.37633 158.336 1.61383C159.241 1.81883 159.958 2.06633 160.486 2.35633C161.016 2.64633 161.501 3.05633 161.946 3.58633C162.391 4.11383 162.613 4.82383 162.613 5.70883C162.613 6.44383 162.451 7.09633 162.126 7.66883ZM151.783 13.4663C150.998 13.5363 150.316 13.7363 149.736 14.0688C149.153 14.4013 147.84 13.9963 145.793 12.8513C145.041 12.4263 144.766 12.0688 144.961 11.7763C145.156 11.4863 145.648 11.3688 146.433 11.4188C147.165 11.4863 147.896 11.5563 148.62 11.6238C149.346 11.6913 150.256 11.7263 151.348 11.7263H156.775C157.355 11.7263 158.408 11.7138 159.936 11.6888C161.463 11.6613 162.423 11.5713 162.816 11.4188C163.703 11.0788 164.893 10.9413 166.388 11.0088C167.881 11.0788 168.603 11.4863 168.551 12.2388C168.516 12.7663 168.201 13.0788 167.603 13.1713C167.006 13.2663 166.306 13.2888 165.503 13.2363C164.976 13.2013 164.391 13.1763 163.751 13.1588C163.111 13.1438 162.366 13.1338 161.51 13.1338V15.5663C161.801 15.5488 162.076 15.5413 162.331 15.5413C162.586 15.5413 162.816 15.5588 163.021 15.5913C163.756 15.7463 164.033 16.0488 163.853 16.5013C163.676 16.9538 163.576 17.3763 163.558 17.7688V19.7638C163.576 20.9763 163.396 21.9313 163.021 22.6313C162.646 23.3313 162.243 23.6988 161.818 23.7313C161.476 23.7488 161.196 23.4813 160.973 22.9263C160.751 22.3713 160.623 21.6238 160.588 20.6863V17.5113C160.111 17.5288 158.971 17.5763 157.173 17.6513C155.37 17.7288 154.461 17.7688 154.446 17.7688C153.763 17.8538 153.181 18.0363 152.703 18.3188C152.226 18.5988 151.093 18.2113 149.301 17.1538C149.025 16.9838 148.826 16.7063 148.698 16.3213C148.571 15.9363 149.068 15.7963 150.196 15.8988C150.433 15.9338 150.723 15.9638 151.066 15.9888C151.408 16.0138 151.783 16.0363 152.193 16.0513V13.4163C152.056 13.4338 151.921 13.4513 151.783 13.4663ZM182.183 17.5763C181.766 18.0438 181.555 18.6213 181.555 19.3038C181.555 19.9513 181.766 20.5163 182.183 20.9938C182.601 21.4713 183.158 21.7113 183.858 21.7113C184.525 21.7113 185.068 21.4713 185.486 20.9938C185.903 20.5163 186.113 19.9513 186.113 19.3038C186.113 18.6388 185.903 18.0663 185.486 17.5888C185.068 17.1113 184.525 16.8713 183.858 16.8713C183.158 16.8713 182.601 17.1063 182.183 17.5763ZM186.471 3.30383C186.471 2.80883 186.338 2.41633 186.073 2.12633C185.811 1.83633 185.361 1.55383 184.73 1.28133C184.236 1.05883 184.016 0.786332 184.078 0.461332C184.138 0.138832 184.586 -0.016168 185.421 0.0013322C185.661 0.0188317 186.228 0.0863322 187.123 0.206332C188.018 0.326332 188.638 0.453833 188.978 0.591332C189.476 0.761333 189.663 1.04633 189.543 1.44883C189.423 1.84883 189.363 2.36383 189.363 2.99633V11.2138C189.381 12.8688 189.201 14.0088 188.826 14.6313C188.451 15.2538 188.058 15.5738 187.648 15.5913C187.308 15.6088 187.033 15.3713 186.831 14.8738C186.623 14.3813 186.506 13.5088 186.471 12.2638V9.60133C186.146 9.63633 185.908 9.67383 185.753 9.71633C185.601 9.75883 185.428 9.80633 185.241 9.85633C184.918 9.94383 184.555 10.0488 184.153 10.1763C183.753 10.3063 182.998 9.95883 181.888 9.14133C181.65 8.95133 181.446 8.70883 181.273 8.41133C181.103 8.11383 181.538 8.00633 182.578 8.09133C183.023 8.12383 183.611 8.13883 184.346 8.12883C185.078 8.12133 185.788 8.11633 186.471 8.11633V3.30383ZM188.711 21.0188C188.446 21.5313 188.076 21.9838 187.598 22.3763C187.12 22.7513 186.566 23.0488 185.933 23.2713C185.301 23.4938 184.611 23.6038 183.858 23.6038C183.126 23.6038 182.436 23.4938 181.786 23.2713C181.135 23.0488 180.573 22.7513 180.096 22.3763C179.618 21.9838 179.238 21.5313 178.958 21.0188C178.676 20.5063 178.536 19.9513 178.536 19.3538C178.536 18.5013 178.743 17.8238 179.161 17.3188C179.581 16.8163 180.036 16.4288 180.531 16.1538C181.025 15.8813 181.691 15.6613 182.528 15.4888C182.733 15.2688 182.736 15.1088 182.54 15.0163C182.346 14.9213 182.248 14.8163 182.248 14.6963C182.248 14.3213 182.703 14.1663 183.616 14.2338C184.531 14.3038 185.078 14.4563 185.268 14.6963C185.456 14.9188 185.493 15.0588 185.383 15.1188C185.271 15.1788 185.215 15.3013 185.215 15.4888C185.215 15.5063 185.421 15.5588 185.831 15.6413C186.241 15.7288 186.683 15.9088 187.161 16.1813C187.658 16.4538 188.105 16.8413 188.506 17.3463C188.908 17.8488 189.108 18.5188 189.108 19.3538C189.108 19.9513 188.976 20.5063 188.711 21.0188ZM178.253 3.50883C177.793 3.50883 177.348 3.50133 176.921 3.48133C176.598 3.44883 176.256 3.32383 175.898 3.11133C175.538 2.89883 175.103 2.57133 174.593 2.12633C174.165 1.73383 174.076 1.43383 174.323 1.23133C174.571 1.02633 174.986 0.983832 175.566 1.10133C176.266 1.23883 176.881 1.33383 177.408 1.38383C177.936 1.43383 178.646 1.47883 179.533 1.51133C180.711 1.54633 181.266 1.86133 181.198 2.45883C181.128 3.05633 180.676 3.37133 179.84 3.40633C179.243 3.47383 178.713 3.50883 178.253 3.50883ZM183.641 14.0563C183.138 14.3613 182.563 14.2338 181.913 13.6713C181.691 13.4838 181.228 13.0663 180.518 12.4163C179.811 11.7688 179.176 11.2063 178.611 10.7288C177.62 11.6163 176.551 12.4313 175.398 13.1738C174.248 13.9138 173.141 14.4388 172.083 14.7463C171.178 15.0013 170.641 14.9938 170.471 14.7213C170.301 14.4488 170.368 14.2263 170.676 14.0563C172.111 13.2713 173.556 12.2388 175.016 10.9588C176.473 9.67883 177.758 8.14133 178.868 6.35133C178.408 6.38383 178.061 6.42383 177.831 6.46633C177.601 6.50883 177.323 6.54633 176.998 6.58133C176.743 6.59883 176.508 6.64133 176.296 6.70883C176.081 6.77633 175.965 6.81133 175.951 6.81133C175.538 6.98133 175.12 7.10883 174.696 7.19383C174.268 7.28133 173.441 6.90383 172.211 6.06883C171.683 5.71133 171.465 5.38633 171.558 5.09633C171.653 4.80633 172.076 4.70383 172.826 4.78883C173.013 4.80633 173.376 4.83883 173.913 4.89133C174.451 4.94133 174.986 4.96883 175.513 4.96883C176.468 4.96883 177.241 4.95133 177.831 4.91633C178.418 4.88383 178.893 4.78133 179.251 4.60883C179.525 4.47133 180.071 4.41383 180.891 4.43133C181.711 4.44633 182.188 4.48133 182.323 4.53383C182.818 4.70383 182.991 5.00633 182.836 5.44133C182.681 5.87633 182.426 6.31633 182.068 6.75883C181.691 7.28883 181.313 7.77883 180.928 8.23133C180.543 8.68383 180.173 9.09883 179.816 9.47383C180.003 9.62633 180.203 9.78133 180.415 9.93383C180.628 10.0888 180.821 10.2163 180.993 10.3188C181.283 10.4713 181.495 10.5263 181.633 10.4838C181.768 10.4413 181.973 10.5063 182.248 10.6763C182.641 10.8988 182.998 11.2613 183.321 11.7638C183.646 12.2688 183.858 12.6138 183.961 12.8013C184.251 13.3313 184.146 13.7488 183.641 14.0563Z" fill="white"/>
</g>
</svg>
