<svg width="20" height="20" viewBox="0 0 20 20" fill="none" xmlns="http://www.w3.org/2000/svg">
<g id="Frame 42">
<path id="Subtract" fill-rule="evenodd" clip-rule="evenodd" d="M10 20C15.5228 20 20 15.5228 20 10C20 4.47715 15.5228 0 10 0C4.47715 0 0 4.47715 0 10C0 15.5228 4.47715 20 10 20ZM15.7071 7.70711C16.0976 7.31658 16.0976 6.68342 15.7071 6.29289C15.3166 5.90237 14.6834 5.90237 14.2929 6.29289L8.25 12.3358L5.70711 9.79289C5.31658 9.40237 4.68342 9.40237 4.29289 9.79289C3.90237 10.1834 3.90237 10.8166 4.29289 11.2071L7.03166 13.9459L7.04392 13.9586C7.06125 13.9764 7.08331 13.9982 7.10972 14.0227C7.16158 14.0707 7.23534 14.1337 7.32811 14.1978C7.49459 14.3128 7.8209 14.5 8.25 14.5C8.6791 14.5 9.00541 14.3128 9.17189 14.1978C9.26466 14.1337 9.33842 14.0707 9.39028 14.0227C9.41669 13.9982 9.43875 13.9764 9.45608 13.9586L9.46835 13.9459L15.7071 7.70711Z" fill="#288BE1"/>
</g>
</svg>
